<?xml version="1.0" standalone="no"?>
<!DOCTYPE svg PUBLIC "-//W3C//DTD SVG 20010904//EN"
 "http://www.w3.org/TR/2001/REC-SVG-20010904/DTD/svg10.dtd">
<svg version="1.0" xmlns="http://www.w3.org/2000/svg"
 width="585.000000pt" height="791.000000pt" viewBox="0 0 585.000000 791.000000"
 preserveAspectRatio="xMidYMid meet">
<metadata>
Created by potrace 1.16, written by Peter Selinger 2001-2019
</metadata>
<g transform="translate(0.000000,791.000000) scale(0.100000,-0.100000)"
fill="#000000" stroke="none">
<path d="M1712 7899 c-13 -5 -28 -7 -33 -3 -5 3 -9 0 -9 -5 0 -6 -3 -10 -7 -9
-5 1 -18 -4 -31 -11 -13 -7 -30 -10 -37 -7 -7 2 -19 -2 -26 -10 -7 -8 -18 -13
-26 -10 -7 3 -13 1 -13 -5 0 -6 -7 -8 -16 -5 -8 3 -13 2 -10 -3 5 -8 -43 -22
-67 -20 -5 0 -14 -7 -21 -17 -7 -9 -18 -14 -24 -10 -6 3 -18 -2 -28 -11 -10
-10 -29 -19 -42 -20 -13 -1 -32 -9 -41 -18 -10 -8 -21 -12 -24 -8 -4 3 -7 1
-7 -5 0 -9 -31 -25 -52 -27 -3 0 -18 -10 -32 -22 -14 -13 -26 -18 -26 -13 0
12 -49 -16 -67 -39 -25 -29 -13 -31 28 -5 93 58 345 170 508 225 96 33 177 62
180 64 8 9 -53 4 -77 -6z"/>
<path d="M1969 7906 c-3 -3 -46 -14 -96 -25 -198 -43 -391 -121 -606 -244
-186 -107 -185 -106 -280 -203 -44 -45 -90 -88 -103 -95 -13 -7 -24 -17 -24
-22 0 -5 -24 -37 -53 -70 -50 -59 -127 -168 -127 -182 0 -3 9 -1 21 5 11 7 23
10 25 8 2 -3 -25 -44 -61 -93 -49 -66 -62 -91 -54 -101 7 -9 4 -23 -15 -51
-27 -42 -47 -121 -27 -109 14 9 14 -5 1 -40 -7 -18 -7 -30 1 -40 8 -10 7 -21
-5 -45 -9 -18 -16 -43 -16 -56 0 -13 -7 -37 -15 -52 -8 -16 -22 -69 -31 -119
-9 -51 -20 -90 -24 -87 -4 3 -16 32 -26 65 -13 43 -22 59 -33 58 -20 -4 -26
38 -12 86 5 20 6 38 1 41 -4 2 -28 -17 -53 -44 -30 -32 -49 -45 -55 -39 -7 7
-14 3 -21 -11 -7 -12 -9 -21 -6 -21 3 0 -3 -12 -12 -27 -15 -22 -18 -46 -17
-128 1 -55 3 -111 5 -125 1 -14 -3 -79 -9 -145 -6 -66 -14 -172 -17 -235 -7
-141 -10 -169 -18 -195 -7 -23 -36 -301 -43 -420 -3 -44 -7 -103 -10 -131 -4
-38 -2 -53 10 -63 19 -16 21 -52 4 -69 -8 -8 -8 -15 1 -25 6 -8 12 -31 13 -51
1 -28 5 -36 20 -36 11 0 18 7 18 20 0 27 10 25 37 -7 l23 -28 19 23 c11 12 24
22 30 22 13 0 13 2 2 -37 -6 -21 -6 -35 0 -39 6 -3 13 3 16 15 3 12 12 21 20
21 12 0 14 10 11 40 -3 33 0 40 14 40 13 0 18 -8 18 -25 0 -14 5 -25 10 -25 6
0 10 18 10 39 0 30 7 48 30 72 16 18 32 31 35 28 3 -3 -6 -33 -20 -67 -29 -71
-29 -72 -14 -72 17 0 38 32 39 58 0 13 6 22 15 22 8 0 15 -7 15 -15 0 -8 7
-15 15 -15 8 0 15 6 15 13 0 8 9 24 20 37 11 13 20 27 20 32 0 4 7 8 15 8 8 0
15 7 15 15 0 8 10 30 22 49 13 19 49 80 81 135 71 123 106 160 141 154 15 -3
26 -9 26 -13 0 -4 15 -10 33 -14 32 -6 127 -65 127 -78 0 -5 8 -8 17 -8 23 0
86 -23 96 -35 6 -7 10 -6 13 1 3 6 26 9 57 6 29 -2 66 2 82 9 17 7 33 13 37
13 3 1 26 19 50 41 24 22 50 41 58 43 7 2 35 21 60 42 26 22 50 37 53 34 3 -3
8 3 11 13 3 10 23 28 44 40 45 25 299 264 407 383 30 32 116 110 123 110 4 0
25 17 47 39 22 21 56 47 75 57 19 11 51 31 70 45 19 14 55 33 80 43 25 10 56
23 70 28 25 10 62 21 170 51 30 8 84 16 120 17 81 2 72 2 150 -5 114 -10 126
-11 137 -18 6 -4 16 0 23 8 11 13 14 13 26 -2 11 -16 16 -16 35 -5 18 11 23
11 30 1 6 -10 13 -10 34 -1 14 7 37 9 51 6 15 -4 24 -2 24 6 0 7 7 10 15 6 8
-3 27 -1 42 5 19 7 28 6 34 -2 5 -9 14 -8 34 5 23 15 29 16 36 5 8 -11 11 -10
20 4 10 17 12 17 23 1 11 -14 16 -15 36 -4 18 9 27 9 45 0 18 -10 27 -9 48 4
20 13 26 14 30 4 4 -10 7 -11 18 0 18 17 29 15 29 -4 0 -11 5 -14 18 -9 23 10
92 14 92 6 0 -8 81 -14 178 -13 35 0 62 -5 62 -10 0 -7 16 -9 39 -5 22 3 42 2
46 -1 3 -3 13 -7 23 -8 9 -2 64 -12 122 -23 58 -12 162 -28 232 -36 171 -20
251 -48 345 -120 101 -77 188 -226 267 -460 61 -178 67 -193 87 -198 10 -3 22
-20 27 -38 5 -23 15 -35 29 -37 16 -2 23 -13 28 -41 3 -20 14 -50 25 -66 10
-15 16 -34 13 -41 -2 -7 2 -28 10 -46 21 -47 48 -128 54 -163 3 -16 9 -34 13
-40 8 -9 19 -104 25 -206 1 -26 6 -52 10 -59 4 -7 2 -16 -6 -21 -11 -7 -12
-12 -2 -29 14 -22 10 -202 -8 -301 -6 -37 -6 -66 0 -82 6 -15 6 -29 2 -32 -5
-3 -38 4 -73 14 -112 35 -396 100 -521 121 -583 96 -945 78 -1327 -65 l-125
-47 -120 6 c-66 3 -177 10 -248 15 l-127 9 -169 81 c-271 130 -527 204 -836
242 -179 22 -592 17 -805 -10 -222 -28 -299 -41 -306 -52 -3 -5 -9 -59 -14
-120 -4 -60 -10 -112 -12 -114 -2 -2 -39 -11 -83 -20 -114 -23 -238 -67 -325
-113 -41 -22 -91 -44 -112 -47 l-36 -7 15 -35 c16 -39 22 -163 9 -201 -10 -29
-34 -41 -74 -35 -24 4 -51 24 -97 71 l-65 66 0 -451 0 -450 27 -29 c15 -16 26
-38 25 -49 -2 -18 -2 -19 8 -2 13 21 30 13 30 -14 0 -16 3 -18 19 -9 50 26
101 -8 101 -66 0 -32 2 -35 23 -28 32 9 32 11 18 47 -15 37 -61 206 -61 225 0
7 11 0 25 -15 l25 -28 6 23 c3 12 11 22 16 22 6 0 7 -8 4 -17 -5 -15 -4 -15 9
1 14 19 15 19 16 -10 5 -88 46 376 58 647 11 249 16 266 104 350 55 52 121 83
218 101 108 21 214 -17 236 -84 7 -20 19 -118 28 -218 25 -291 53 -385 139
-478 77 -82 194 -125 426 -156 247 -33 725 -47 875 -26 129 19 218 77 298 194
22 33 77 137 123 230 107 222 146 256 295 256 121 0 201 -84 258 -271 67 -217
142 -351 239 -423 30 -22 52 -47 52 -57 0 -11 4 -19 9 -19 5 0 12 -9 16 -19 8
-26 84 -72 160 -98 119 -42 461 -83 680 -83 51 0 95 3 98 7 12 11 -46 43 -77
43 -16 0 -45 4 -65 9 -20 6 -163 36 -318 68 -155 31 -281 59 -279 61 2 1 74
-6 160 -18 316 -41 677 -52 831 -25 119 21 175 47 234 109 70 75 112 167 170
370 47 163 78 236 102 236 5 0 10 -4 10 -10 1 -5 2 -14 3 -19 0 -5 4 -13 9
-17 6 -6 12 35 8 59 -2 13 29 67 39 67 5 0 29 18 54 40 65 55 131 63 208 24
34 -18 71 -81 93 -158 15 -51 17 -91 12 -280 -6 -237 -18 -336 -82 -641 -73
-353 -85 -417 -94 -528 -9 -121 -20 -153 -73 -212 -43 -49 -100 -77 -151 -74
-51 3 -118 25 -129 42 -11 17 -22 -2 -47 -87 -126 -421 -238 -669 -373 -824
-15 -18 -28 -37 -28 -42 0 -6 -4 -10 -9 -10 -5 0 0 17 10 37 10 21 19 46 19
58 0 16 2 17 10 5 13 -20 12 -10 -1 29 -12 34 -47 60 -58 43 -3 -6 -33 -13
-66 -16 -40 -5 -65 -13 -77 -26 -11 -11 -25 -20 -33 -20 -8 0 -15 -4 -15 -10
0 -5 -22 -21 -49 -35 -27 -13 -52 -29 -56 -34 -3 -6 -11 -8 -19 -5 -7 3 -21
-7 -32 -21 -10 -14 -23 -25 -29 -25 -6 0 -16 -9 -23 -20 -11 -17 -58 -53 -113
-86 -11 -6 -16 -14 -13 -17 4 -4 -5 -11 -19 -16 -28 -11 -44 -23 -113 -89 -25
-23 -59 -49 -77 -59 -18 -9 -56 -35 -86 -57 -62 -47 -62 -47 -150 -103 -36
-23 -79 -51 -96 -63 -144 -100 -297 -169 -435 -196 -89 -17 -324 -19 -432 -4
-40 6 -84 13 -98 14 -124 18 -369 116 -486 197 -104 70 -265 222 -384 360 -30
35 -95 107 -145 159 -192 205 -192 205 -284 344 -35 53 -67 96 -72 96 -5 0
-17 18 -26 40 -10 22 -21 40 -26 40 -4 0 -6 4 -3 9 3 4 -9 30 -26 57 -29 46
-64 126 -73 168 -3 10 -9 33 -14 50 -16 51 -31 157 -37 261 -2 38 -7 76 -10
85 -4 8 -8 20 -9 25 -19 78 -39 124 -82 180 -5 6 -14 22 -21 36 -7 14 -29 42
-48 63 -19 20 -41 50 -49 66 -8 15 -20 34 -28 42 -24 25 -58 78 -50 78 4 0 4
4 -2 8 -15 11 -55 70 -55 81 0 5 -13 15 -29 22 -19 9 -26 16 -18 21 18 11 5
16 -30 11 -29 -5 -34 -11 -44 -47 -6 -22 -17 -51 -25 -63 -32 -51 -80 -213
-90 -308 -10 -91 -11 -100 -14 -100 -1 0 -4 -11 -5 -25 -1 -14 -6 -52 -9 -85
-11 -97 -14 -503 -4 -598 4 -49 15 -105 23 -124 8 -20 15 -43 15 -53 0 -27 94
-205 144 -271 25 -34 69 -82 98 -107 71 -65 132 -143 117 -152 -14 -9 -16 -35
-24 -370 -7 -283 -18 -462 -30 -493 -7 -16 69 -17 1546 -15 l1554 3 3 75 c3
91 36 254 63 314 19 45 110 136 134 136 8 0 16 -9 20 -20 3 -11 46 -42 98 -71
144 -82 298 -183 475 -312 90 -66 165 -117 168 -115 12 13 -13 41 -69 80 -34
23 -68 47 -75 55 -7 7 -36 28 -65 47 -29 19 -61 43 -72 53 -11 11 -56 41 -100
67 -44 27 -94 59 -112 72 -18 14 -40 28 -50 32 -10 4 -51 26 -91 50 l-72 43
41 35 c22 19 45 34 49 34 11 0 155 97 228 153 113 88 298 298 374 427 93 156
180 355 234 537 62 208 59 198 80 195 10 -1 42 -5 71 -8 107 -13 214 55 272
173 27 54 33 80 41 185 11 131 19 184 51 318 40 171 100 498 115 635 22 193
15 446 -14 528 -20 53 -49 104 -78 134 -19 20 -95 43 -141 43 -24 0 -43 2 -43
4 0 10 71 303 80 332 13 39 40 294 42 389 3 113 -2 922 -5 1020 -6 152 -7 341
-5 537 2 102 0 184 -4 182 -4 -2 -5 7 -2 20 5 28 -11 44 -20 21 -3 -8 -10 -15
-16 -15 -6 0 -2 17 10 39 19 33 20 42 10 62 l-13 23 -27 -32 c-14 -18 -30 -29
-33 -25 -14 14 -6 90 15 133 12 25 20 50 19 55 -2 6 -4 18 -6 27 -2 9 -8 25
-14 36 -6 11 -8 22 -5 25 3 2 -4 20 -15 38 -11 18 -18 36 -15 41 3 4 0 8 -7 8
-7 0 -9 3 -6 6 3 4 1 16 -6 28 -6 11 -13 26 -13 31 -1 6 -3 12 -4 15 -1 3 -4
25 -6 50 -3 25 -9 50 -14 55 -5 6 -7 21 -4 33 7 23 -21 65 -46 70 -8 2 -20 10
-26 18 -6 7 -17 14 -23 14 -7 0 -10 4 -7 8 5 9 -83 97 -96 97 -5 0 -7 3 -5 6
1 3 -6 13 -15 23 -10 10 -18 23 -18 31 0 7 -7 15 -15 19 -8 3 -15 12 -15 19 0
8 -7 21 -16 28 -18 15 -47 22 -39 9 3 -4 -4 -10 -15 -13 -11 -3 -19 -11 -18
-18 2 -8 -7 -15 -19 -17 -14 -2 -23 2 -23 9 0 7 -3 10 -6 6 -3 -3 -40 30 -82
74 -42 43 -81 79 -86 79 -5 0 -17 10 -27 22 -11 11 -19 17 -19 12 -1 -5 -11 3
-23 18 -12 15 -29 28 -37 30 -8 2 -21 10 -28 18 -12 13 -13 13 -7 0 6 -13 5
-13 -7 0 -21 25 -161 125 -170 122 -4 -1 -8 2 -8 8 0 6 -3 9 -7 8 -5 -2 -18 6
-31 17 -26 23 -36 24 -153 25 -65 0 -90 4 -99 16 -7 8 -19 13 -27 10 -7 -3
-13 0 -13 6 0 6 -3 9 -6 6 -3 -4 -27 16 -53 43 l-48 50 -400 -1 c-220 -1 -406
-5 -413 -10 -18 -11 38 -20 110 -17 30 1 73 -3 95 -10 71 -22 208 -55 277 -67
37 -7 71 -15 74 -19 15 -15 -4 -16 -49 -2 -53 16 -74 4 -24 -15 98 -37 97 -48
-2 -21 -40 11 -79 17 -87 14 -13 -5 -110 15 -204 43 -25 7 -63 16 -85 20 -22
3 -34 9 -27 11 28 10 -3 23 -56 23 -31 0 -75 5 -97 10 -97 23 -455 6 -455 -21
0 -5 12 -9 26 -9 14 0 23 -4 19 -10 -4 -6 -54 -10 -116 -10 -71 0 -108 4 -104
10 9 14 -6 13 -123 -10 -57 -11 -108 -18 -113 -14 -5 3 -44 2 -86 -2 -64 -5
-74 -9 -60 -19 14 -10 -2 -16 -98 -35 -63 -13 -115 -27 -115 -32 0 -4 -8 -8
-18 -8 -9 0 -42 -9 -72 -21 -30 -11 -64 -23 -75 -26 -20 -4 -20 -4 -1 11 11 9
16 16 10 16 -11 1 64 26 216 74 98 31 160 55 139 56 -3 0 -45 -9 -95 -20 -49
-11 -105 -23 -124 -27 -19 -3 -37 -10 -40 -14 -3 -4 -21 -10 -40 -13 -42 -6
-117 -22 -145 -31 -63 -20 74 43 168 76 136 49 193 66 272 79 231 39 231 38
-21 39 -127 1 -233 -1 -235 -3z m2124 -170 c29 -19 74 -46 102 -60 27 -15 52
-30 55 -34 7 -10 57 -42 66 -42 3 0 -19 24 -50 54 -31 29 -56 56 -56 59 0 13
59 -16 81 -39 12 -13 27 -24 33 -24 6 0 22 -10 36 -21 54 -43 109 -80 203
-133 63 -36 117 -88 117 -114 0 -18 -10 -15 -47 14 -18 14 -49 32 -68 40 -35
14 -35 14 -23 -6 7 -11 16 -20 20 -20 5 0 8 -5 8 -12 0 -7 -19 7 -43 30 -23
23 -49 42 -57 42 -8 0 -22 5 -30 11 -11 8 -9 9 10 4 24 -7 24 -7 5 8 -11 8
-23 13 -27 11 -4 -3 -20 4 -35 15 -16 12 -44 23 -63 26 l-35 6 31 -18 c17 -10
47 -31 67 -47 21 -16 52 -36 69 -45 18 -9 34 -23 36 -31 4 -13 2 -12 -14 1
-10 9 -24 18 -29 20 -6 2 -53 28 -104 58 -60 35 -89 56 -81 61 14 9 -20 29
-82 49 -21 7 -38 16 -38 21 0 5 -10 12 -22 15 -35 10 -227 106 -234 116 -3 5
16 8 43 7 39 -3 48 -6 48 -22 0 -14 19 -26 75 -47 83 -32 121 -34 50 -2 -25
11 -51 27 -59 36 -7 9 -17 14 -22 11 -5 -3 -14 -2 -21 2 -7 5 -5 11 7 21 24
17 19 18 78 -21z m330 -65 c34 -16 80 -45 102 -65 22 -20 53 -47 68 -61 15
-14 33 -25 40 -25 14 0 56 -38 101 -90 16 -19 31 -29 33 -23 8 22 -25 68 -83
118 -83 73 -120 113 -111 121 3 3 21 -10 41 -28 19 -18 60 -46 91 -61 30 -16
57 -32 60 -37 10 -16 95 -69 95 -60 0 18 22 10 27 -10 3 -11 9 -17 14 -14 5 3
47 -32 93 -78 73 -72 110 -123 129 -178 3 -8 6 -2 6 13 1 34 24 32 29 -1 2
-12 8 -22 13 -22 5 0 9 -7 9 -15 0 -9 -6 -12 -15 -9 -10 4 -15 0 -15 -15 0
-32 -13 -25 -44 23 -29 46 -76 96 -76 80 1 -5 9 -27 20 -49 11 -22 19 -49 20
-60 0 -21 2 -22 -130 122 -74 82 -91 90 -99 50 l-6 -29 -72 74 c-40 40 -73 80
-73 88 0 25 -50 71 -99 93 -25 11 -59 31 -75 44 -16 13 -35 22 -42 19 -8 -3
-14 -2 -14 3 0 5 -9 11 -20 14 -14 4 -18 10 -13 23 4 12 3 15 -6 10 -7 -5 -20
3 -32 18 -11 14 -27 26 -34 26 -8 0 -17 5 -20 10 -11 18 25 10 88 -19z m771
-393 c20 -21 76 -106 76 -116 0 -5 8 -19 19 -31 24 -28 35 -108 20 -151 l-12
-33 -24 48 c-12 27 -23 53 -23 57 0 20 -56 127 -66 128 -20 0 -27 110 -7 110
2 0 10 -6 17 -12z m201 -268 c7 0 16 6 18 13 10 24 25 -15 38 -98 12 -85 5
-118 -39 -167 -26 -31 -32 -20 -32 62 0 44 -4 80 -9 80 -13 0 -25 142 -15 187
l8 38 9 -57 c6 -36 14 -58 22 -58z m-4722 -267 c-3 -10 -10 -23 -14 -28 -14
-18 -40 -105 -35 -114 5 -8 -4 -44 -21 -91 -4 -8 -5 -19 -4 -24 1 -6 -2 -19
-7 -30 -6 -12 -16 -55 -22 -96 -17 -106 -28 -118 -28 -30 0 98 21 206 47 240
15 21 19 37 14 63 -4 29 0 43 28 81 33 47 53 60 42 29z m4947 -840 c-1 -104 3
-235 8 -293 13 -153 14 -861 2 -1030 -15 -203 -32 -306 -85 -525 -44 -181 -58
-225 -69 -215 -8 9 23 216 39 254 61 146 88 559 64 991 -26 480 -30 856 -9
931 14 48 28 73 43 74 4 0 7 -84 7 -187z m-3755 -1503 c140 -9 237 -27 373
-66 99 -29 220 -78 248 -100 18 -14 17 -14 -5 -3 -17 8 -52 10 -110 5 -172
-13 -208 -12 -291 5 -122 26 -201 38 -320 49 -110 9 -196 28 -242 53 -15 7
-25 17 -21 20 3 4 -6 7 -21 7 -15 0 -25 -4 -22 -8 4 -7 -81 -39 -95 -35 -11 3
-46 -91 -65 -172 -10 -44 -21 -85 -25 -90 -4 -6 -4 -17 1 -25 6 -8 10 -27 10
-41 0 -53 39 -67 215 -75 61 -2 142 -9 180 -15 98 -14 309 -27 338 -22 32 6
62 71 62 135 0 40 -5 52 -35 84 l-35 36 30 -15 c17 -9 62 -38 100 -65 60 -41
70 -53 73 -81 2 -19 -4 -43 -14 -58 -16 -25 -16 -27 0 -39 9 -6 38 -15 63 -19
26 -4 75 -16 111 -27 35 -10 66 -18 68 -15 2 2 -5 30 -16 62 -11 32 -18 60
-15 63 7 7 125 -39 125 -49 0 -5 6 -9 14 -9 8 0 37 -18 65 -40 28 -22 55 -40
61 -40 5 0 10 -5 10 -11 0 -6 9 -9 20 -6 25 6 25 -6 4 -81 -61 -222 -129 -359
-221 -446 -73 -69 -204 -91 -483 -82 -594 21 -820 86 -904 259 -35 72 -46 152
-53 367 -6 219 11 359 53 447 46 93 95 115 297 133 245 21 299 22 472 10z
m2645 -194 c136 -18 406 -73 490 -98 136 -42 203 -93 216 -165 15 -81 -18
-365 -62 -532 -64 -245 -156 -331 -384 -361 -262 -34 -898 32 -1048 109 -45
23 -93 75 -121 129 -30 60 -77 219 -96 325 -21 116 -17 291 7 348 22 50 74
107 120 130 71 36 300 99 448 122 62 10 335 5 430 -7z m-1326 -227 c61 -17
121 -80 145 -152 31 -90 25 -112 -9 -40 -48 97 -112 141 -211 144 -60 1 -103
-12 -136 -43 -34 -32 -28 -8 9 36 51 62 115 79 202 55z"/>
<path d="M4060 4162 c-19 -1 -68 -9 -109 -17 -40 -8 -96 -15 -125 -15 -28 0
-64 -7 -80 -15 -15 -8 -37 -15 -47 -15 -25 0 -48 -37 -55 -92 -6 -41 -4 -48
18 -62 14 -9 33 -35 44 -57 17 -39 17 -43 1 -72 -23 -39 -13 -48 43 -37 25 5
135 9 245 10 236 0 335 8 329 24 -9 23 32 171 48 174 20 4 99 -50 132 -89 33
-39 33 -65 -1 -83 l-28 -14 35 -5 c96 -14 171 -28 224 -43 40 -11 62 -12 69
-5 19 19 13 122 -10 171 -27 59 -92 127 -129 136 -16 4 -36 13 -44 20 -8 7
-34 15 -56 17 -23 3 -52 11 -65 18 -28 15 -164 35 -299 45 -52 3 -97 7 -100 8
-3 1 -21 0 -40 -2z"/>
<path d="M520 7202 c-8 -9 -15 -21 -15 -27 -1 -5 -6 -9 -13 -7 -11 2 -13 -4
-11 -24 0 -4 -10 -12 -22 -18 -12 -6 -21 -15 -20 -20 2 -5 -3 -12 -11 -17 -7
-5 -14 -13 -14 -19 -1 -5 -2 -14 -3 -20 0 -5 -9 -10 -18 -10 -15 0 -16 -2 -3
-10 11 -7 11 -10 2 -10 -15 0 -61 -40 -46 -40 5 0 1 -5 -9 -11 -9 -6 -15 -14
-12 -19 3 -5 -5 -16 -17 -24 -12 -9 -18 -16 -13 -16 5 0 -1 -9 -13 -20 -12
-11 -19 -27 -16 -35 4 -8 -1 -17 -10 -21 -9 -3 -13 -10 -10 -15 7 -11 -21 -51
-29 -42 -4 3 -7 1 -7 -5 0 -22 -2 -27 -12 -39 -6 -7 -7 -13 -3 -13 4 0 2 -7
-5 -15 -7 -8 -10 -15 -7 -15 3 0 0 -12 -8 -26 -7 -15 -11 -33 -8 -41 3 -7 -2
-22 -12 -33 -11 -13 -15 -28 -11 -44 3 -13 3 -26 -2 -28 -4 -2 -5 -55 -2 -118
5 -110 6 -113 13 -55 4 33 15 90 23 126 9 37 14 75 13 85 -4 31 12 124 22 124
5 0 9 9 9 21 0 11 13 44 30 74 17 30 30 60 30 68 0 16 76 123 117 167 13 14
33 42 44 64 11 21 33 50 47 65 48 48 63 69 55 74 -4 3 -15 -2 -23 -11z"/>
<path d="M111 5840 c-2 -5 -4 -26 -16 -150 -17 -190 -18 -195 -30 -223 -4 -10
-5 -33 -2 -52 3 -19 1 -37 -4 -41 -6 -3 -10 -47 -11 -97 -2 -681 -1 -865 6
-882 5 -11 8 -39 7 -62 -2 -23 1 -48 5 -55 5 -7 9 -19 10 -28 18 -160 18 -163
-4 -151 -47 25 -72 31 -72 17 0 -12 118 -82 125 -74 1 2 -6 58 -15 124 -57
383 -61 921 -10 1406 17 160 23 294 11 268z"/>
<path d="M1585 5069 c-75 -15 -146 -40 -180 -63 -62 -42 -185 -164 -218 -217
-11 -16 -23 -29 -28 -29 -5 0 -9 -4 -9 -9 0 -5 -16 -32 -35 -61 -34 -51 -45
-90 -25 -90 5 0 7 -13 4 -29 -5 -23 -2 -32 15 -41 12 -6 18 -16 15 -22 -10
-16 101 -2 140 17 16 8 37 15 46 15 27 0 84 27 163 76 103 64 150 76 302 80
205 5 321 -25 484 -123 82 -50 277 -153 381 -202 19 -9 112 17 105 30 -4 5 0
9 8 9 19 0 23 18 25 125 2 67 0 86 -8 75 -8 -11 -10 5 -9 65 1 44 1 91 0 105
-2 23 -3 23 -11 5 -4 -11 -6 -38 -3 -59 8 -49 -12 -42 -21 9 -12 61 -28 53
-22 -11 5 -47 2 -39 -14 35 -23 112 -40 138 -41 65 -1 -61 -17 -32 -18 32 -1
24 -7 47 -16 54 -13 11 -14 8 -9 -21 l7 -34 -50 48 c-50 48 -70 59 -59 32 3
-8 1 -15 -4 -15 -6 0 -10 9 -10 20 0 11 -4 20 -10 20 -5 0 -10 -4 -10 -9 0 -5
-18 0 -41 11 -22 10 -47 17 -54 14 -8 -3 -38 1 -67 9 -246 65 -604 107 -723
84z"/>
<path d="M3940 4889 c-46 -4 -94 -12 -105 -17 -105 -48 -123 -60 -151 -100
l-25 -37 7 38 c7 42 -2 49 -16 11 -6 -14 -14 -22 -20 -19 -5 3 -12 -7 -15 -22
-17 -79 -18 -81 -24 -43 -7 43 -15 32 -32 -45 -7 -33 -20 -76 -29 -95 -16 -32
-16 -41 -2 -110 25 -127 56 -153 134 -114 26 13 55 24 64 24 9 0 28 8 42 19
23 16 94 57 142 82 86 45 296 119 337 119 12 0 25 5 28 10 4 6 14 9 23 6 10
-3 53 -2 97 3 44 4 100 5 125 1 25 -4 39 -8 33 -9 -27 -2 -11 -19 25 -25 78
-14 92 -18 92 -27 0 -12 51 -58 65 -59 6 0 33 -25 60 -56 28 -30 62 -62 77
-70 16 -8 25 -20 22 -28 -3 -8 4 -16 20 -20 13 -3 34 -20 46 -36 12 -17 26
-30 31 -30 18 0 8 61 -16 100 -14 22 -21 40 -16 40 6 0 14 -7 19 -16 14 -25
25 1 12 26 -6 12 -16 49 -21 83 -6 34 -17 72 -25 84 -8 12 -14 29 -14 36 0 15
-33 54 -118 140 -45 47 -111 90 -142 93 -8 1 -37 12 -65 24 -36 16 -75 23
-136 26 -47 2 -117 8 -155 14 -80 11 -251 11 -374 -1z"/>
<path d="M5629 3652 c-53 -35 -152 -128 -179 -167 -15 -22 -34 -61 -41 -85 -7
-25 -17 -51 -22 -58 -14 -18 -22 -202 -10 -202 18 0 55 100 65 174 10 80 31
116 72 127 39 11 52 3 81 -46 30 -53 41 -61 60 -45 25 21 55 137 55 212 0 104
-23 130 -81 90z"/>
<path d="M1245 3081 c-36 -6 -38 -7 -15 -13 87 -25 790 -32 775 -8 -3 5 14 11
37 13 24 2 12 3 -27 1 -149 -8 -524 -5 -595 5 -81 11 -113 12 -175 2z"/>
<path d="M2343 2967 c-82 -121 -92 -302 -20 -384 43 -49 110 -80 192 -88 129
-13 260 -34 304 -50 58 -20 222 -20 276 1 106 41 131 45 301 47 l171 2 49 30
c48 30 94 92 109 145 6 19 0 15 -24 -17 -17 -24 -38 -43 -47 -43 -9 0 -34 15
-57 34 -23 19 -64 40 -90 47 -46 11 -157 8 -217 -6 -14 -3 -57 -9 -95 -12 -86
-7 -152 10 -275 70 -75 37 -93 41 -155 41 -38 -1 -99 -6 -135 -12 -105 -19
-193 -21 -228 -6 -34 14 -72 67 -72 99 0 11 11 46 24 78 27 64 22 73 -11 24z"/>
<path d="M280 2545 c0 -165 -44 -227 -185 -264 -22 -6 -52 -11 -67 -11 -27 0
-28 -1 -28 -57 l0 -58 87 3 c81 3 92 7 138 38 28 19 54 34 58 34 4 0 7 -24 8
-52 0 -53 4 -78 32 -238 26 -145 48 -230 87 -334 84 -225 175 -382 303 -520
45 -49 85 -100 88 -115 4 -14 7 -72 8 -128 1 -93 -1 -104 -21 -122 -12 -12
-37 -24 -55 -27 -18 -3 -36 -10 -39 -15 -3 -5 -12 -9 -20 -9 -23 0 -141 -59
-259 -131 -105 -64 -139 -85 -333 -211 -55 -35 -82 -59 -82 -72 0 -13 3 -16
13 -9 28 23 311 204 414 267 124 74 199 110 316 151 63 23 78 32 84 53 3 14 3
88 -1 165 l-6 140 -49 56 c-27 31 -61 67 -76 81 -35 32 -137 185 -180 270
-129 257 -184 512 -206 948 -12 237 -29 335 -29 167z"/>
<path d="M4192 2368 c6 -18 32 -64 58 -103 26 -38 57 -96 71 -129 33 -82 68
-88 69 -10 0 85 -63 193 -147 250 -51 34 -65 32 -51 -8z"/>
<path d="M1637 2338 c-28 -25 -51 -96 -45 -141 4 -29 7 -30 33 -20 22 8 25 4
55 -86 35 -102 56 -130 154 -207 118 -94 265 -165 401 -194 22 -5 51 -13 65
-18 26 -10 202 -28 365 -37 50 -3 124 -9 167 -13 42 -4 152 -4 244 0 93 4 234
9 314 12 163 4 241 19 383 70 119 44 154 61 270 136 63 41 94 68 103 90 18 43
5 46 -117 30 -111 -15 -169 -9 -366 35 -191 43 -313 56 -528 54 -142 -1 -235
4 -320 16 -121 17 -267 17 -606 -1 -83 -5 -132 -3 -170 7 -30 7 -56 14 -59 14
-3 1 -22 5 -42 9 -21 5 -36 12 -33 16 3 5 -12 13 -32 20 -21 6 -56 16 -78 23
-22 6 -50 22 -61 34 -12 13 -25 23 -30 23 -31 1 -65 56 -47 74 4 3 8 12 9 19
2 7 6 22 10 35 3 12 2 22 -3 22 -6 0 -22 -10 -36 -22z m1208 -408 c24 -5 51
-21 68 -40 26 -30 29 -30 34 -12 14 57 175 77 265 34 39 -19 50 -21 72 -11 37
17 131 -5 164 -38 21 -21 28 -23 51 -14 19 8 38 8 71 -2 42 -12 45 -15 48 -51
6 -66 -4 -84 -50 -97 -23 -6 -55 -8 -71 -5 -19 4 -34 1 -44 -9 -22 -22 -148
-24 -192 -2 -20 10 -26 9 -40 -9 -24 -30 -57 -35 -172 -27 -87 5 -102 9 -107
25 -5 22 -6 22 -38 2 -54 -36 -274 2 -302 52 -9 17 -11 17 -27 0 -15 -14 -28
-16 -89 -10 -109 10 -117 15 -111 66 15 109 13 106 48 111 17 3 51 11 75 18
52 16 71 7 87 -41 11 -34 12 -34 18 -10 3 14 12 33 20 44 23 31 141 45 222 26z"/>
<path d="M2266 1503 c-15 -39 7 -81 87 -165 93 -96 117 -114 204 -151 81 -34
238 -51 402 -44 116 6 129 8 195 41 80 40 153 97 143 113 -4 6 -40 14 -79 18
-278 26 -444 54 -563 98 -44 16 -114 41 -155 56 -41 15 -81 31 -89 36 -8 4
-43 9 -77 11 -49 2 -64 -1 -68 -13z"/>
<path d="M735 499 c-85 -41 -175 -92 -215 -122 -67 -48 -162 -154 -189 -211
-28 -58 -51 -127 -51 -153 0 -10 61 -13 270 -13 l270 0 0 270 c0 149 -1 270
-2 269 -2 0 -39 -18 -83 -40z"/>
<path d="M4151 327 c-10 -25 -37 -182 -47 -269 l-7 -58 201 0 c233 0 223 -8
133 104 -47 59 -250 246 -266 246 -3 0 -9 -10 -14 -23z"/>
</g>
</svg>
