<svg xmlns="http://www.w3.org/2000/svg" width="585" height="791" viewBox="0 0 585 791" version="1.1"><path d="M 192.500 2.712 C 181.928 5.052, 167.825 9.637, 159.500 13.441 C 156.750 14.698, 152.475 16.563, 150 17.586 C 147.525 18.608, 145.177 19.907, 144.783 20.472 C 144.389 21.038, 143.264 21.521, 142.283 21.547 C 141.302 21.572, 140.613 22.135, 140.750 22.797 C 140.888 23.459, 140.410 24, 139.688 24 C 138.966 24, 136.513 24.900, 134.236 26 C 131.959 27.100, 129.598 28, 128.989 28 C 128.380 28, 128.160 28.450, 128.500 29 C 128.840 29.550, 128.218 30, 127.118 30 C 126.018 30, 124.840 30.450, 124.500 31 C 124.160 31.550, 123.249 32, 122.476 32 C 120.655 32, 111.500 37.797, 111.500 38.950 C 111.500 40.148, 107.522 43.548, 101.500 47.497 C 95.256 51.591, 84.404 62.747, 79.623 69.987 C 75.521 76.199, 74.909 78.535, 78.250 75.235 C 81.269 72.252, 86.643 68, 87.394 68 C 89.375 68, 87.060 71.281, 80.046 78.412 C 75.671 82.861, 70.285 89.088, 68.077 92.250 C 64.274 97.696, 64.181 98, 66.317 98 C 67.812 98, 71.889 94.784, 78.409 88.462 C 87.144 79.993, 94 74.768, 94 76.580 C 94 76.928, 92.875 78.097, 91.500 79.179 C 89.019 81.130, 88.214 83, 89.855 83 C 90.325 83, 94.222 79.633, 98.514 75.518 C 102.807 71.403, 108.072 67.122, 110.216 66.004 C 112.359 64.887, 114.650 63.524, 115.307 62.976 C 115.963 62.427, 117.761 61.032, 119.303 59.875 C 122.887 57.185, 122.131 56.364, 118.025 58.487 C 112.112 61.545, 112.900 59.490, 119.239 55.322 C 122.712 53.039, 128.213 48.616, 131.462 45.493 C 137.270 39.913, 149.066 32.223, 164.138 24.193 C 173.392 19.261, 201.128 8.187, 213.500 4.482 C 218.450 3, 222.950 1.349, 223.500 0.813 C 225.347 -0.989, 203.053 0.378, 192.500 2.712 M 352.083 0.361 C 353.228 1.352, 361 1.920, 361 1.012 C 361 0.455, 358.900 0, 356.333 0 C 353.767 0, 351.854 0.162, 352.083 0.361 M 377.236 0.570 C 377.550 0.883, 380.437 1.816, 383.653 2.642 C 386.869 3.469, 391.835 5.238, 394.688 6.573 C 397.542 7.908, 400.254 9, 400.716 9 C 401.178 9, 402.326 9.900, 403.268 11 C 404.210 12.100, 405.997 12.986, 407.240 12.968 C 409.478 12.937, 409.481 12.921, 407.500 11.346 C 405.586 9.825, 405.640 9.782, 408.750 10.353 C 412.994 11.133, 412.851 10.085, 408.292 7 C 406.260 5.625, 403.497 3.488, 402.153 2.250 C 399.913 0.188, 398.744 0, 388.187 0 C 381.851 0, 376.923 0.256, 377.236 0.570 M 405.568 0.765 C 415.850 7.840, 421.978 11.506, 429 14.781 C 443.746 21.658, 444.823 21.966, 444.168 19.114 C 443.944 18.136, 444.387 17.944, 445.675 18.460 C 446.679 18.863, 448.136 19.450, 448.914 19.766 C 449.916 20.173, 450.080 19.939, 449.477 18.963 C 446.674 14.428, 445.676 14, 437.900 14 C 428.209 14, 424.252 12.361, 417.209 5.429 C 412.578 0.872, 411.115 0.002, 408.096 0.015 C 406.118 0.024, 404.980 0.361, 405.568 0.765 M 365.913 3.054 C 363.936 4.275, 364.858 4.696, 371 5.373 C 376.012 5.926, 376.328 5.847, 374.559 4.490 C 373.491 3.670, 372.141 2.966, 371.559 2.923 C 370.976 2.881, 369.773 2.705, 368.884 2.532 C 367.995 2.358, 366.658 2.593, 365.913 3.054 M 254.500 13.676 C 253.400 13.920, 250.803 14.768, 248.730 15.560 C 246.656 16.352, 243.797 17, 242.376 17 C 240.955 17, 236.127 18.089, 231.646 19.420 C 227.166 20.751, 218.325 23.063, 212 24.556 C 200.032 27.383, 181.197 33.493, 179.550 35.083 C 179.028 35.587, 177.879 36, 176.997 36 C 174.474 36, 154.419 46.323, 148.190 50.828 C 146.420 52.109, 144.461 52.987, 143.838 52.779 C 142.635 52.378, 148.483 47.421, 153.500 44.590 L 156.500 42.896 153.613 43.501 C 150.779 44.096, 145.243 47.682, 141.711 51.212 C 140.727 52.195, 139.491 53, 138.964 53 C 138.437 53, 136.317 54.516, 134.253 56.369 C 132.189 58.222, 127.800 61.452, 124.500 63.547 C 121.200 65.641, 118.050 67.897, 117.500 68.559 C 116.950 69.221, 112.900 72.381, 108.500 75.580 C 104.100 78.779, 100.006 82.051, 99.402 82.851 C 98.798 83.651, 97.823 84.009, 97.236 83.646 C 96.650 83.283, 94.762 84.171, 93.042 85.618 C 89.395 88.687, 89.646 89.934, 93.413 87.465 C 94.836 86.533, 96 86.182, 96 86.685 C 96 88.102, 85.836 99.170, 85.158 98.491 C 84.828 98.161, 84.995 97.574, 85.529 97.187 C 87.803 95.537, 91.256 91, 90.237 91 C 88.957 91, 82.022 98.062, 82.009 99.379 C 82.004 99.862, 80.292 102.787, 78.204 105.879 C 72.386 114.494, 68.757 121.090, 69.452 121.785 C 69.797 122.130, 70.331 121.451, 70.638 120.276 C 70.946 119.100, 71.751 118.351, 72.428 118.611 C 73.135 118.882, 74.415 117.405, 75.437 115.139 C 76.991 111.693, 85 102.546, 85 104.218 C 85 104.561, 82.690 108.566, 79.866 113.119 C 77.042 117.672, 74.057 122.995, 73.232 124.948 C 71.900 128.102, 71.647 128.276, 70.968 126.500 C 70.294 124.734, 70.017 124.935, 68.602 128.218 C 67.721 130.263, 66.975 132.738, 66.944 133.718 C 66.873 135.978, 63.131 144.991, 63.056 143.083 C 62.930 139.882, 61.983 143.072, 60.998 150.017 C 60.421 154.085, 59.575 157.658, 59.118 157.957 C 58.661 158.256, 57.965 161.409, 57.570 164.965 C 57.175 168.521, 56.599 171.840, 56.290 172.340 C 55.325 173.900, 53.031 165.738, 53.015 160.691 C 53.005 157.550, 52.631 156.110, 51.936 156.540 C 51.297 156.934, 50.981 160.138, 51.146 164.555 C 51.297 168.602, 51.100 172.233, 50.710 172.623 C 49.802 173.531, 49.905 173.733, 47.088 165.500 C 44.339 157.464, 42.528 154.336, 41.545 155.927 C 40.141 158.200, 38.996 156.825, 38.900 152.750 C 38.845 150.412, 38.502 147.436, 38.137 146.135 C 37.491 143.831, 37.339 143.896, 32.301 148.635 C 29.457 151.311, 26.650 154.767, 26.065 156.315 C 24.621 160.131, 24.716 171.572, 26.210 173.965 C 27.148 175.467, 27.157 177.206, 26.248 181.701 C 25.102 187.375, 24.470 195.961, 23.512 218.878 C 23.251 225.135, 22.597 231.660, 22.059 233.378 C 20.875 237.161, 18.022 266.582, 17.830 277 C 17.754 281.125, 17.300 285.572, 16.820 286.882 C 15.348 290.908, 16.629 292.755, 21.198 293.190 C 24.492 293.504, 25.788 293.121, 27.617 291.292 C 28.878 290.031, 30.556 289, 31.348 289 C 32.139 289, 33.056 288.296, 33.386 287.437 C 34.083 285.619, 36 286.442, 36 288.559 C 36 289.352, 35.127 290, 34.059 290 C 32.991 290, 31.840 290.450, 31.500 291 C 31.160 291.550, 31.809 292, 32.941 292 C 35.260 292, 39.147 288.567, 38.927 286.714 C 38.848 286.046, 39.109 284.488, 39.508 283.250 C 40.454 280.316, 43.236 280.238, 42.813 283.157 C 42.339 286.423, 44.825 286.552, 46.172 283.331 C 47.300 280.635, 47.376 280.608, 47.748 282.750 C 47.963 283.988, 48.594 285, 49.149 285 C 49.762 285, 49.890 283.723, 49.474 281.750 C 48.914 279.093, 49.028 278.728, 50.095 279.750 C 51.879 281.459, 54 281.323, 54 279.500 C 54 278.675, 54.498 278, 55.107 278 C 55.716 278, 55.998 278.563, 55.734 279.250 C 55.137 280.803, 60.257 280.723, 64.315 279.115 C 65.863 278.502, 67.790 278, 68.596 278 C 69.403 278, 70.344 277.212, 70.687 276.250 C 71.030 275.288, 71.803 273.884, 72.405 273.131 C 73.927 271.227, 80.292 259.766, 84.068 252.128 C 85.885 248.454, 88.019 245.546, 89.109 245.261 C 90.149 244.989, 91 244.369, 91 243.883 C 91 243.398, 91.675 243, 92.500 243 C 93.325 243, 94 243.338, 94 243.750 C 94 244.162, 95.463 244.554, 97.250 244.620 C 99.037 244.686, 102.300 245.277, 104.500 245.932 C 106.700 246.588, 109.400 247.231, 110.500 247.361 C 111.600 247.492, 113.569 248.185, 114.877 248.902 C 116.184 249.619, 119.920 250.373, 123.180 250.577 C 126.440 250.781, 129.452 251.162, 129.875 251.423 C 130.298 251.684, 131.818 251.288, 133.254 250.543 C 134.690 249.798, 137.133 248.906, 138.683 248.561 C 141.171 248.006, 144.756 245.936, 153.919 239.761 C 155.339 238.805, 157.175 237.706, 158 237.319 C 158.825 236.932, 162.824 234.002, 166.886 230.808 C 170.948 227.614, 174.651 225, 175.115 225 C 175.580 225, 176.886 223.184, 178.018 220.965 C 179.150 218.746, 180.690 217.058, 181.441 217.215 C 182.191 217.372, 184.789 215.475, 187.213 213 C 189.638 210.525, 193.310 207.150, 195.373 205.500 C 200.189 201.650, 201.740 200.222, 202.161 199.255 C 202.688 198.043, 212.430 191.316, 214.704 190.594 C 215.822 190.239, 217.540 189.060, 218.523 187.974 C 219.506 186.889, 220.860 186, 221.533 186 C 222.205 186, 223.274 185.375, 223.908 184.611 C 224.542 183.847, 226.060 182.992, 227.281 182.711 C 228.501 182.430, 231.975 181.224, 235 180.032 C 238.025 178.840, 242.525 177.245, 245 176.487 C 250.834 174.703, 270.351 172.167, 275.500 172.525 C 277.700 172.678, 284.129 172.917, 289.787 173.057 C 295.445 173.197, 300.332 173.728, 300.646 174.237 C 300.961 174.746, 302.347 174.879, 303.727 174.532 C 305.368 174.121, 306.855 174.463, 308.027 175.524 C 309.695 177.034, 309.869 176.989, 310.540 174.875 L 311.261 172.604 313.075 174.845 C 314.679 176.825, 315.158 176.935, 317.195 175.793 C 318.463 175.082, 319.775 174.124, 320.111 173.665 C 320.447 173.206, 320.991 173.856, 321.318 175.109 C 321.891 177.300, 321.989 177.320, 323.861 175.626 C 325.482 174.159, 326.142 174.072, 327.800 175.107 C 329.452 176.139, 330.078 176.065, 331.468 174.675 C 332.511 173.632, 333.996 173.212, 335.397 173.563 C 336.799 173.915, 338.142 173.534, 338.956 172.553 C 340.141 171.126, 340.382 171.139, 341.523 172.701 C 342.577 174.142, 343.041 174.210, 344.358 173.118 C 345.224 172.399, 346.510 172.020, 347.216 172.275 C 347.922 172.530, 349.287 172.053, 350.250 171.215 C 351.822 169.845, 352 169.852, 352 171.286 C 352 173.799, 353.721 174.229, 356.497 172.410 C 358.898 170.837, 359.170 170.844, 361.026 172.523 C 362.924 174.241, 363.083 174.236, 365.146 172.405 C 366.679 171.044, 367.416 170.855, 367.727 171.742 C 368.055 172.681, 368.665 172.715, 370.227 171.878 C 371.888 170.990, 372.477 171.101, 373.230 172.447 C 374.105 174.010, 374.336 174.010, 376.709 172.455 C 378.734 171.128, 379.414 171.052, 380.050 172.080 C 380.695 173.125, 381.166 173.107, 382.521 171.983 C 383.965 170.784, 384.324 170.828, 385.150 172.304 C 385.923 173.685, 386.505 173.800, 388.181 172.903 C 389.719 172.080, 390.440 172.093, 390.972 172.955 C 391.419 173.678, 392.731 173.855, 394.452 173.423 C 396.298 172.959, 397.486 173.168, 398.031 174.050 C 398.704 175.139, 399.125 175.142, 400.424 174.063 C 401.555 173.125, 402.363 173.056, 403.284 173.820 C 404.097 174.496, 405.104 174.546, 406.034 173.958 C 408.170 172.607, 409 172.790, 409 174.613 C 409 175.864, 409.729 176.120, 412.238 175.752 C 414.020 175.490, 416.832 175.705, 418.488 176.230 C 423.437 177.796, 445.881 181.974, 455 183.026 C 469.104 184.652, 479.902 189.005, 490.036 197.149 C 498.299 203.790, 506.771 219.076, 516.277 244.500 C 517.369 247.420, 519.241 249.504, 523.210 252.218 C 526.840 254.701, 529.536 257.569, 531.320 260.847 C 534.292 266.308, 541.982 287.681, 542.032 290.619 C 542.049 291.653, 542.724 293.374, 543.532 294.441 C 544.339 295.509, 545 297.160, 545 298.110 C 545 299.060, 545.633 301.112, 546.407 302.669 C 549.733 309.358, 552.209 318.830, 552.397 325.587 C 552.499 329.247, 555.053 332.281, 556.670 330.664 C 557.775 329.559, 557.905 305.275, 556.911 285.500 C 556.441 276.150, 555.809 261.525, 555.506 253 C 555.203 244.475, 554.657 231.200, 554.293 223.500 C 553.404 204.699, 553.814 193.566, 555.628 187.263 C 557.192 181.825, 556.894 180, 554.441 180 C 552.597 180, 552.595 177.554, 554.436 174.715 C 556.310 171.824, 556.164 156.277, 554.256 155.545 C 553.491 155.251, 552.982 153.337, 552.989 150.777 C 553.016 141.171, 552.281 133.881, 551.174 132.774 C 550.528 132.128, 550 129.080, 550 126 C 550 122.920, 549.594 119.973, 549.097 119.450 C 548.600 118.928, 548.015 117.600, 547.797 116.500 C 547.455 114.782, 547.156 114.958, 545.674 117.750 C 544.725 119.537, 543.245 121, 542.385 121 C 541.524 121, 540 122.013, 538.996 123.250 C 537.993 124.487, 536.848 125.177, 536.452 124.783 C 536.056 124.389, 535.359 119.889, 534.903 114.783 C 533.581 99.986, 533.357 99.209, 530.572 99.741 C 529.221 100, 527.918 101.134, 527.575 102.349 C 527.077 104.115, 526.815 104.232, 526.112 103 C 525.642 102.175, 524.935 99.716, 524.542 97.535 C 523.713 92.927, 521.367 88, 520.003 88 C 519.483 88, 518.643 89.462, 518.136 91.250 L 517.214 94.500 514.909 89.250 C 512.357 83.439, 511.339 82.800, 510.427 86.433 C 509.639 89.576, 507.764 88.833, 505.398 84.441 C 504.379 82.549, 503.295 81, 502.988 81 C 502.682 81, 501.629 79.642, 500.649 77.982 C 499.668 76.323, 498.418 75.242, 497.870 75.580 C 497.322 75.919, 496.051 75.451, 495.046 74.541 C 494.040 73.631, 491.995 72.756, 490.501 72.597 C 489.008 72.438, 486.070 70.776, 483.973 68.904 C 477.419 63.052, 477.206 62.918, 476.636 64.279 C 476.274 65.145, 475.712 64.991, 474.703 63.750 C 473.042 61.708, 466.307 57, 465.046 57 C 464.014 57, 467.545 64.601, 468.993 65.495 C 469.547 65.838, 470 66.596, 470 67.180 C 470 67.765, 467.518 66.122, 464.484 63.531 C 461.451 60.939, 458.317 58.723, 457.521 58.606 C 456.725 58.489, 454.144 56.843, 451.787 54.949 C 449.429 53.054, 447.315 51.656, 447.090 51.842 C 446.864 52.027, 446.274 51.454, 445.778 50.569 C 445.283 49.683, 444.452 49.221, 443.931 49.542 C 443.411 49.864, 442.706 49.397, 442.364 48.506 C 442.022 47.614, 441.107 47.129, 440.331 47.427 C 439.554 47.725, 433.875 45.553, 427.710 42.601 C 421.544 39.648, 415.150 36.948, 413.500 36.600 C 411.850 36.251, 409.600 35.792, 408.500 35.578 C 407.400 35.364, 403.125 34.054, 399 32.667 C 390.721 29.881, 379.777 26.616, 373.292 24.997 C 368.588 23.822, 366.538 22.013, 370.780 22.781 C 372.276 23.052, 373.275 23.028, 373 22.729 C 372.725 22.430, 370.025 21.693, 367 21.091 C 363.975 20.490, 359.398 19.569, 356.829 19.044 C 351.796 18.016, 331.359 16.692, 332.109 17.443 C 332.359 17.693, 336.825 18.429, 342.032 19.079 C 347.239 19.728, 352.222 20.887, 353.105 21.654 C 354.035 22.461, 355.472 22.756, 356.519 22.354 C 357.765 21.876, 358.103 22.025, 357.605 22.830 C 357.165 23.541, 357.524 24, 358.520 24 C 361.574 24, 373.484 29.260, 376.380 31.887 C 377.964 33.324, 382.099 37.415, 385.569 40.978 C 392.247 47.835, 393.566 50.863, 387.232 44.795 C 383.252 40.983, 379.271 38.706, 374.640 37.594 C 373.066 37.216, 369.916 36.046, 367.640 34.994 C 357.964 30.525, 344.287 28.854, 314.763 28.533 C 299.507 28.367, 287.234 28.570, 287.489 28.983 C 288.081 29.940, 280.434 31, 272.932 31 C 268.977 31, 266.640 31.503, 265.555 32.588 C 264.682 33.461, 262.181 34.381, 259.997 34.632 C 257.813 34.882, 254.033 35.688, 251.596 36.421 C 249.159 37.154, 246.001 37.532, 244.577 37.260 C 243.153 36.987, 241.349 37.295, 240.568 37.943 C 239.787 38.591, 238.552 39.003, 237.824 38.858 C 237.096 38.713, 234.282 39.596, 231.570 40.820 C 228.859 42.045, 226.159 42.864, 225.570 42.640 C 224.982 42.416, 225.400 41.923, 226.500 41.544 C 227.600 41.166, 229.175 40.443, 230 39.938 C 236.375 36.039, 238.936 35.206, 244.509 35.215 C 248.022 35.220, 251.948 34.540, 254 33.571 L 257.500 31.918 252.500 32.641 C 249.750 33.039, 245.250 33.420, 242.500 33.487 C 239.750 33.555, 235.842 33.967, 233.815 34.404 C 227.168 35.837, 227.761 33.902, 235.038 30.414 C 239.348 28.349, 243.688 27, 246.022 27 C 251.181 27, 251.974 25.340, 247.200 24.534 C 244.843 24.136, 241.699 24.453, 238.946 25.367 C 236.501 26.178, 230.225 27.597, 225 28.519 C 208.528 31.425, 195.297 35.125, 178.500 41.522 C 176.727 42.197, 176.671 42.116, 178 40.805 C 180.328 38.511, 199.601 31.391, 208.500 29.538 C 212.900 28.622, 219.310 27.043, 222.745 26.028 C 226.179 25.014, 229.895 24.421, 231.002 24.711 C 233.139 25.270, 238.504 23.503, 241 21.418 C 241.825 20.729, 247 19.406, 252.500 18.479 C 262.769 16.747, 267.815 15.089, 262.993 15.030 C 261.615 15.014, 258.933 15.446, 257.034 15.990 C 254.754 16.644, 253.244 16.644, 252.590 15.990 C 251.937 15.337, 252.667 15, 254.741 15 C 256.469 15, 258.160 14.550, 258.500 14 C 259.132 12.978, 258.043 12.889, 254.500 13.676 M 269 18.133 C 263.225 19.192, 255.652 20.456, 252.170 20.942 C 248.689 21.428, 245.577 22.090, 245.254 22.413 C 244.102 23.565, 254.594 22.951, 259.815 21.561 C 262.738 20.783, 269.263 19.621, 274.315 18.978 C 279.367 18.335, 285.750 17.456, 288.500 17.023 C 293.492 16.239, 293.489 16.238, 286.500 16.223 C 282.650 16.215, 274.775 17.074, 269 18.133 M 455 18.479 C 455 18.732, 457.363 20.517, 460.250 22.445 C 463.137 24.374, 466.625 26.704, 468 27.623 C 469.792 28.821, 469.650 28.546, 467.500 26.653 C 464.226 23.771, 455 17.738, 455 18.479 M 221.629 39.606 C 219.358 41.150, 216.246 42.271, 214 42.356 C 211.913 42.435, 210.458 42.914, 210.767 43.420 C 211.081 43.935, 210.544 44.039, 209.547 43.656 C 208.399 43.216, 206.023 44.045, 202.868 45.986 C 200.174 47.644, 197.489 49, 196.901 49 C 194.522 49, 174.455 60.789, 175.336 61.669 C 175.507 61.841, 180.528 59.312, 186.492 56.050 C 192.457 52.788, 199.174 49.813, 201.419 49.440 C 203.663 49.066, 207.170 47.914, 209.210 46.880 C 211.251 45.846, 214.273 45, 215.926 45 C 217.837 45, 219.984 43.999, 221.823 42.250 C 223.413 40.737, 225.566 38.964, 226.607 38.309 C 228.063 37.393, 228.149 37.104, 226.982 37.059 C 226.147 37.026, 223.738 38.173, 221.629 39.606 M 164.750 44.062 C 157.261 47.891, 154.565 49.876, 159.298 48.077 C 164.591 46.065, 175 41.083, 175 40.563 C 175 39.311, 172.120 40.294, 164.750 44.062 M 492.220 45.533 C 493.716 47.106, 495.119 48.193, 495.338 47.947 C 495.557 47.701, 494.333 46.414, 492.618 45.086 L 489.500 42.672 492.220 45.533 M 209.500 50.068 C 207.850 51.125, 207.175 51.982, 208 51.972 C 208.825 51.963, 210.625 51.076, 212 50 C 215.197 47.499, 213.436 47.547, 209.500 50.068 M 152.029 49.961 C 151.220 50.473, 150.853 51.187, 151.214 51.548 C 151.575 51.909, 152.900 51.483, 154.158 50.602 C 156.623 48.875, 154.674 48.288, 152.029 49.961 M 498 51 C 498.589 52.100, 499.574 53, 500.190 53 C 500.806 53, 500.495 52.100, 499.500 51 C 498.505 49.900, 497.519 49, 497.310 49 C 497.101 49, 497.411 49.900, 498 51 M 198.815 53.035 C 196.788 54.105, 194.828 55.469, 194.460 56.064 C 194.092 56.660, 195.607 56.221, 197.828 55.088 C 200.048 53.955, 202.146 52.572, 202.491 52.014 C 203.305 50.697, 203.168 50.735, 198.815 53.035 M 138.065 56.421 C 137.097 57.588, 137.255 57.746, 138.943 57.305 C 140.074 57.009, 141 56.369, 141 55.883 C 141 54.535, 139.386 54.830, 138.065 56.421 M 506.924 59.409 C 509.309 61.957, 511.006 62.725, 510.994 61.250 C 510.990 60.837, 509.528 59.672, 507.744 58.659 L 504.500 56.819 506.924 59.409 M 189.429 60.429 C 188.370 61.203, 187.728 62.061, 188.003 62.336 C 188.278 62.611, 189.370 62.203, 190.429 61.429 C 191.488 60.654, 192.129 59.796, 191.854 59.521 C 191.579 59.246, 190.488 59.654, 189.429 60.429 M 90 65 C 88.625 66.076, 88.013 66.966, 88.639 66.978 C 89.266 66.990, 90.841 66.115, 92.139 65.033 C 95.211 62.474, 93.268 62.444, 90 65 M 82.195 91.186 C 79.313 93.993, 77.207 96.540, 77.513 96.847 C 77.820 97.153, 79.158 96.300, 80.488 94.952 C 83.476 91.922, 85.037 90.638, 87.217 89.418 C 88.189 88.874, 88.595 87.963, 88.171 87.277 C 87.673 86.470, 85.734 87.738, 82.195 91.186 M 97.616 98.003 C 94.367 101.600, 93.434 103, 94.288 103 C 94.447 103, 96.269 100.975, 98.338 98.500 C 103.001 92.922, 102.511 92.585, 97.616 98.003 M 547.553 99 C 547.855 101.475, 548.561 103.950, 549.122 104.500 C 550.160 105.518, 549.607 102.285, 547.839 97 C 547.258 95.262, 547.170 95.871, 547.553 99 M 71.039 100.189 C 69.248 102.111, 68.392 104, 69.312 104 C 69.484 104, 70.622 102.650, 71.842 101 C 74.432 97.497, 73.976 97.036, 71.039 100.189 M 63.783 103.752 C 62.417 105.816, 61.073 109.049, 60.796 110.938 L 60.292 114.372 62.641 111.436 C 63.933 109.821, 65.007 107.825, 65.027 107 C 65.047 106.175, 65.724 104.626, 66.532 103.559 C 68.187 101.370, 68.419 100, 67.133 100 C 66.656 100, 65.148 101.688, 63.783 103.752 M 564.336 230 C 564.336 234.125, 564.513 235.813, 564.728 233.750 C 564.944 231.688, 564.944 228.313, 564.728 226.250 C 564.513 224.188, 564.336 225.875, 564.336 230 M 564.650 286 C 564.248 311.575, 563.731 334.750, 563.501 337.500 C 563.107 342.206, 563.142 342.294, 564.084 339 C 565.072 335.542, 566.678 245.407, 565.820 241.500 C 565.579 240.400, 565.052 260.425, 564.650 286 M 166.158 285.065 C 164.869 285.582, 163.424 285.762, 162.945 285.466 C 161.313 284.457, 148.512 287.254, 143.705 289.669 C 140.952 291.053, 134.992 296.057, 129.705 301.423 C 117.749 313.559, 107.161 328.027, 111.435 326.387 C 112.465 325.991, 112.655 326.882, 112.269 330.307 L 111.769 334.738 116.284 335.415 C 119.861 335.952, 121.481 335.678, 124.079 334.098 C 125.883 333.001, 127.679 332.302, 128.071 332.544 C 128.780 332.982, 139.120 328.533, 150.410 322.932 C 153.660 321.319, 156.853 320, 157.506 320 C 158.159 320, 160.101 319.297, 161.823 318.438 C 165.818 316.446, 180.613 315.579, 187.352 316.942 C 190.183 317.515, 194.300 318.258, 196.500 318.592 C 198.700 318.927, 201.258 319.605, 202.184 320.100 C 203.111 320.595, 204.789 321, 205.914 321 C 207.040 321, 214.157 324.117, 221.730 327.927 C 236.442 335.328, 244.085 338.401, 250.500 339.496 C 252.700 339.872, 254.976 340.572, 255.557 341.052 C 256.138 341.532, 258.691 342.119, 261.230 342.356 C 263.769 342.593, 266.280 343.055, 266.810 343.383 C 268.157 344.215, 269.582 342.233, 271.407 336.992 C 273.149 331.988, 273.557 321, 272 321 C 271.450 321, 270.993 322.913, 270.985 325.250 C 270.976 327.587, 270.572 330.128, 270.086 330.895 C 269.521 331.787, 269.006 328.902, 268.658 322.895 C 267.994 311.460, 267.117 306.190, 265.736 305.337 C 265.028 304.899, 264.887 306.915, 265.298 311.596 C 265.876 318.197, 265.843 318.346, 264.528 315 C 263.771 313.075, 263.118 310.751, 263.076 309.835 C 263.001 308.202, 251.986 296.681, 251.226 297.441 C 251.012 297.654, 251.340 298.767, 251.954 299.914 C 253.333 302.490, 251.659 302.738, 249.807 300.233 C 247.563 297.198, 243.066 294.899, 238.698 294.554 C 236.389 294.372, 231.575 293.526, 228 292.675 C 208.177 287.954, 193.795 286.142, 174.234 285.900 C 172.438 285.878, 171.227 285.442, 171.543 284.930 C 172.269 283.756, 169.235 283.832, 166.158 285.065 M 403 302.104 C 399.425 302.571, 395.714 302.710, 394.754 302.411 C 393.075 301.889, 387.387 303.292, 383.764 305.123 C 382.809 305.605, 381.209 306, 380.210 306 C 379.210 306, 376.887 307.553, 375.048 309.451 C 373.208 311.348, 371.272 312.811, 370.745 312.701 C 370.218 312.590, 368.839 314.286, 367.681 316.470 C 365.641 320.317, 365.556 320.363, 364.921 317.970 C 364.280 315.550, 364.236 315.572, 362.756 319 C 361.926 320.925, 360.938 324.637, 360.562 327.250 C 360.185 329.863, 359.455 332, 358.939 332 C 357.435 332, 357.857 340.351, 359.478 342.666 C 362.460 346.922, 373.982 345.708, 392 339.239 C 396.675 337.561, 403.650 335.057, 407.500 333.675 C 421.330 328.711, 443.183 327.096, 459 329.870 C 467.173 331.302, 471.945 332.811, 468.691 332.932 C 466.056 333.031, 467.696 335, 470.413 335 C 472.535 335, 478 339.025, 478 340.588 C 478 340.963, 479.012 342.246, 480.250 343.437 C 482.393 345.501, 484.072 347.529, 490.976 356.393 C 495.282 361.920, 499 364.527, 499 362.018 C 499 361.477, 497.205 358.102, 495.011 354.518 C 490.741 347.542, 490.607 346.393, 494.558 350.657 C 495.912 352.118, 497.277 353.056, 497.591 352.742 C 498.349 351.984, 496.408 348.390, 492.661 343.611 C 490.149 340.407, 489.986 339.922, 491.740 340.861 C 492.911 341.487, 494.119 342, 494.426 342 C 495.544 342, 494.300 336.106, 492.650 333.588 C 491.717 332.165, 491.189 331, 491.477 331 C 492.179 331, 488.207 326.988, 485.044 324.500 C 483.645 323.400, 482.500 321.938, 482.500 321.250 C 482.500 320.563, 482.128 320.030, 481.673 320.066 C 481.218 320.102, 479.854 318.977, 478.641 317.566 C 477.429 316.155, 475.958 315, 475.373 315 C 474.788 315, 473.495 314.100, 472.500 313 C 471.505 311.900, 470.191 311, 469.580 311 C 468.970 311, 466.745 310.075, 464.637 308.945 C 462.194 307.636, 459.480 307.015, 457.152 307.233 L 453.500 307.574 456.500 308.439 C 458.150 308.915, 460.850 310.427, 462.500 311.798 C 465.374 314.188, 465.395 314.261, 463 313.544 C 461.625 313.133, 459.150 312.131, 457.500 311.319 C 455.850 310.506, 452.025 308.938, 449 307.833 C 445.975 306.728, 442.122 305.208, 440.437 304.454 C 437.905 303.321, 414.363 300.695, 410.605 301.127 C 409.997 301.197, 406.575 301.636, 403 302.104 M 6.272 329 C 6.272 331.475, 6.467 332.488, 6.706 331.250 C 6.944 330.012, 6.944 327.988, 6.706 326.750 C 6.467 325.512, 6.272 326.525, 6.272 329 M 130.500 343.992 C 116.024 345.233, 87.102 348.903, 82.886 350.034 C 79.538 350.933, 79.224 351.346, 78.636 355.642 C 78.286 358.192, 78 362.946, 78 366.205 C 78 373.571, 76.802 376, 73.170 376 C 66.895 376, 50.007 381.343, 38.237 387.052 C 31.493 390.323, 25.089 393, 24.008 393 C 22.211 393, 22.299 393.368, 25.021 397.250 C 29.181 403.183, 31.257 411.842, 30.576 420.419 C 29.766 430.633, 28.955 434.359, 27.250 435.712 C 26.410 436.378, 25.223 437.906, 24.611 439.107 C 24 440.308, 22.547 441.639, 21.383 442.064 C 19.508 442.749, 18.720 441.848, 14.479 434.169 C 8.566 423.462, 3.620 415.760, 1.562 414.051 C 0.163 412.890, 0 413.857, 0 423.328 C 0 431.963, 0.292 434.064, 1.594 434.793 C 2.471 435.283, 3.521 437.218, 3.928 439.092 C 4.336 440.967, 5.091 442.422, 5.606 442.326 C 6.156 442.224, 6.460 446.985, 6.341 453.826 C 6.064 469.699, 7.467 480.774, 10.524 486.860 C 11.886 489.572, 13 492.196, 13 492.692 C 13 493.187, 14.563 496.047, 16.474 499.046 C 20.888 505.974, 20.892 504.277, 16.500 487.291 C 11.822 469.200, 11.822 462.004, 16.500 470.741 C 17.600 472.795, 19.264 474.623, 20.198 474.801 C 22.234 475.191, 26.247 469.246, 28.083 463.117 C 28.845 460.575, 29.820 459.101, 30.555 459.383 C 32.297 460.051, 32.846 455.379, 34.026 429.844 C 35.261 403.127, 36.341 398.286, 42.271 392.865 C 51.070 384.822, 63.490 380.475, 75.500 381.235 C 84.128 381.780, 88.683 383.997, 90.598 388.580 C 91.390 390.475, 92.707 399.943, 93.524 409.618 C 95.822 436.824, 97.295 444.219, 102.096 452.646 C 111.750 469.592, 130.910 475.382, 186.318 478.100 C 212.212 479.371, 234.835 478.711, 243.650 476.427 C 250.501 474.653, 254.884 471.958, 261.212 465.630 C 267.205 459.637, 271.335 452.317, 284.355 424.611 C 296.006 399.815, 298.348 396.012, 303.451 393.590 C 310.523 390.235, 322.876 392.773, 328.212 398.678 C 330.842 401.589, 333.823 409.007, 335.415 416.604 C 336.776 423.097, 336.782 426.522, 335.425 422.393 C 333.446 416.372, 328.493 407.762, 325.493 405.128 C 320.029 400.331, 314.989 399.425, 306.001 401.626 C 300.882 402.880, 297.627 404.318, 295.750 406.155 C 292.953 408.892, 292.192 411, 294 411 C 294.550 411, 295 410.625, 295 410.167 C 295 409.708, 295.563 409.281, 296.250 409.218 C 296.938 409.154, 301.786 408.794, 307.023 408.418 L 316.547 407.733 322.309 413 C 329.451 419.527, 331.926 423.784, 335.975 436.500 C 341.684 454.432, 343.178 458.425, 346.142 463.677 C 350.310 471.064, 357.016 478.154, 362.356 480.821 C 372.790 486.032, 408.337 491.427, 443.500 493.136 C 467.385 494.297, 478.586 493.901, 490.039 491.492 C 499.038 489.599, 504.465 486.548, 510.006 480.266 C 516.269 473.167, 519.584 465.706, 525.140 446.206 C 527.899 436.522, 530.762 427.451, 531.503 426.049 C 532.244 424.647, 536.144 420.125, 540.170 416 C 544.195 411.875, 547.393 408.204, 547.275 407.843 C 547.158 407.481, 547.666 401.406, 548.405 394.343 C 549.144 387.279, 549.552 381.159, 549.311 380.742 C 549.070 380.326, 548.155 380.702, 547.278 381.579 C 546.382 382.476, 544.769 382.954, 543.592 382.672 C 542.441 382.396, 531.600 379.703, 519.500 376.688 C 485.862 368.306, 457.863 364.192, 428.500 363.317 C 400.762 362.491, 379.254 366.012, 353.756 375.552 C 342.361 379.815, 340.850 380.134, 332.251 380.088 C 327.164 380.061, 321.989 379.798, 320.751 379.503 C 319.513 379.209, 312.129 378.591, 304.341 378.130 L 290.183 377.291 276.841 370.729 C 248.042 356.563, 224.939 349.538, 194 345.535 C 179.208 343.622, 144.627 342.781, 130.500 343.992 M 562.272 348 C 562.272 350.475, 562.467 351.488, 562.706 350.250 C 562.944 349.012, 562.944 346.988, 562.706 345.750 C 562.467 344.512, 562.272 345.525, 562.272 348 M 7.252 349.500 C 7.263 351.700, 7.468 352.482, 7.707 351.238 C 7.946 349.994, 7.937 348.194, 7.687 347.238 C 7.437 346.282, 7.241 347.300, 7.252 349.500 M 152 350.590 C 124.285 352.969, 117.951 354.319, 113.820 358.726 C 106.021 367.047, 103.586 380.008, 104.280 409.500 C 104.993 439.841, 107.022 447.339, 116.926 456.244 C 128.459 466.612, 151.702 471.264, 199 472.668 C 233.140 473.682, 243.914 471.163, 252.573 460.142 C 258.295 452.861, 262.980 443.757, 266.798 432.500 C 272.375 416.060, 273.344 411.153, 273.424 398.932 C 273.496 387.958, 273.360 387.152, 270.783 383.252 C 266.576 376.888, 263.336 374.365, 252 368.625 C 236.430 360.742, 219.905 355.331, 202.530 352.429 C 193.839 350.977, 161.292 349.793, 152 350.590 M 561.252 356.500 C 561.263 358.700, 561.468 359.482, 561.707 358.238 C 561.946 356.994, 561.937 355.194, 561.687 354.238 C 561.437 353.282, 561.241 354.300, 561.252 356.500 M 8.232 361 C 8.232 362.925, 8.438 363.712, 8.689 362.750 C 8.941 361.788, 8.941 360.212, 8.689 359.250 C 8.438 358.288, 8.232 359.075, 8.232 361 M 167.500 365.996 C 154.626 368.166, 151.047 369.769, 144.741 376.191 C 143.224 377.736, 141.609 379, 141.152 379 C 140.695 379, 139.803 380.138, 139.169 381.528 C 138.536 382.919, 137.338 384.317, 136.509 384.635 C 135.679 384.953, 135 385.635, 135 386.151 C 135 386.666, 133.875 388.301, 132.500 389.783 C 131.125 391.266, 130 393.029, 130 393.701 C 130 395.610, 136.363 396.748, 150.687 397.401 C 157.940 397.731, 165.007 398.432, 166.392 398.959 C 169.714 400.222, 187.317 402, 196.497 402 L 203.783 402 205.313 398.175 C 209.045 388.847, 208.580 385.541, 202.630 379.125 C 200.520 376.850, 200.152 376.087, 201.500 376.785 C 205.637 378.928, 217.643 387.009, 221.327 390.129 C 224.820 393.088, 225.095 393.680, 224.485 396.933 C 224.117 398.892, 223.350 400.784, 222.780 401.136 C 221.190 402.119, 222.850 404, 225.309 404 C 226.514 404, 230.988 405.076, 235.250 406.392 C 241.610 408.354, 243 408.521, 243 407.326 C 243 404.826, 236.552 391.774, 231.615 384.279 C 227.737 378.393, 225.786 376.494, 220.697 373.649 C 209.248 367.251, 203.177 365.773, 187 365.446 C 179.025 365.285, 170.250 365.533, 167.500 365.996 M 9.199 369.500 C 9.171 371.150, 9.509 374.525, 9.949 377 C 10.540 380.319, 10.763 380.713, 10.801 378.500 C 10.829 376.850, 10.491 373.475, 10.051 371 C 9.460 367.681, 9.237 367.287, 9.199 369.500 M 554.727 386.117 C 552.102 396.778, 549.964 405.849, 549.977 406.276 C 549.990 406.702, 551.425 406.315, 553.166 405.414 C 555.353 404.283, 557.867 403.925, 561.302 404.255 C 564.919 404.603, 565.791 404.462, 564.501 403.741 C 563.526 403.195, 560.314 402.997, 557.364 403.302 C 552.902 403.762, 552 403.589, 552 402.271 C 552 401.399, 553.827 393.750, 556.060 385.273 C 558.293 376.796, 559.980 369.157, 559.810 368.297 C 559.639 367.437, 557.352 375.456, 554.727 386.117 M 411.338 369.031 C 391.685 371.496, 367.896 378.154, 360.476 383.268 C 357.441 385.360, 354.583 388.542, 352.609 392.027 C 349.738 397.097, 349.483 398.339, 349.142 408.902 C 348.616 425.226, 351.477 441.283, 357.709 456.978 C 364.724 474.648, 371.569 478.422, 404.790 482.939 C 426.072 485.832, 441.462 486.983, 458.500 486.955 C 495.775 486.894, 507.746 479.314, 515.369 450.947 C 518.702 438.542, 520.964 423.332, 521.687 408.464 C 522.346 394.919, 521.638 392.397, 515.793 387.480 C 509.891 382.513, 500.056 379.288, 476.500 374.592 C 450.129 369.335, 425.601 367.242, 411.338 369.031 M 239.539 372.726 C 232.091 374.297, 229.540 376.272, 231.126 379.236 C 231.645 380.206, 232.697 381, 233.462 381 C 234.228 381, 236.171 382.597, 237.780 384.549 C 239.949 387.181, 242.616 388.775, 248.103 390.719 C 255.707 393.415, 265.142 394.258, 266.991 392.409 C 268.670 390.730, 265.266 382.422, 261.825 379.802 C 260.162 378.536, 258.059 376.774, 257.151 375.886 C 252.869 371.699, 248.298 370.879, 239.539 372.726 M 402.500 376.466 C 401.950 376.636, 398.884 377.354, 395.687 378.062 C 391.920 378.896, 389.103 380.212, 387.687 381.797 C 386.484 383.143, 384.488 385.254, 383.250 386.487 C 382.012 387.720, 381 389.024, 381 389.384 C 381 389.743, 378.637 394.867, 375.750 400.769 C 372.863 406.671, 370.350 411.837, 370.167 412.250 C 369.760 413.166, 373.630 413.224, 377.915 412.367 C 380.001 411.950, 381.031 411.183, 380.935 410.117 C 380.727 407.807, 382.077 404, 383.103 404 C 383.582 404, 384.631 402.425, 385.436 400.500 C 386.240 398.575, 387.426 397, 388.071 397 C 388.968 397, 388.969 397.333, 388.074 398.411 C 387.351 399.282, 387.272 400.050, 387.868 400.418 C 388.399 400.747, 388.833 403.037, 388.833 405.508 C 388.833 409.692, 388.650 410.004, 386.167 410.063 L 383.500 410.127 386 411.170 C 388.542 412.231, 425.448 411.638, 429.508 410.471 C 431.095 410.014, 431.933 408.074, 433.508 401.210 C 435.802 391.210, 436.844 390.455, 443.397 394.044 C 451.396 398.424, 456.209 405.017, 454.125 408.740 C 453.307 410.202, 454.561 410.685, 464.347 412.680 C 470.481 413.930, 476.121 414.964, 476.881 414.977 C 480.395 415.036, 474.374 399.868, 468.497 393.858 C 459.718 384.880, 443.525 378.437, 426.117 376.994 C 414.872 376.063, 404.557 375.832, 402.500 376.466 M 11.079 382.858 C 11.023 383.823, 10.203 384.029, 8.250 383.568 L 5.500 382.920 8.500 384.953 C 11.021 386.662, 11.552 386.745, 11.827 385.474 C 12.007 384.643, 11.930 383.408, 11.656 382.731 C 11.294 381.837, 11.136 381.872, 11.079 382.858 M 161.752 384.847 C 160.240 385.756, 159.003 387.063, 159.002 387.750 C 159.001 388.438, 158.550 389, 158 389 C 156.598 389, 156.753 392.280, 158.253 394.332 C 158.943 395.274, 161.202 396.321, 163.275 396.657 L 167.043 397.269 166.725 390.452 C 166.550 386.703, 165.978 383.536, 165.454 383.415 C 164.929 383.293, 163.263 383.938, 161.752 384.847 M 188 390 C 188 390.550, 189.152 391, 190.559 391 C 192.010 391, 192.851 390.567, 192.500 390 C 192.160 389.450, 191.009 389, 189.941 389 C 188.873 389, 188 389.450, 188 390 M 422 391.987 C 421.175 392.465, 419.712 393.099, 418.750 393.396 C 415.863 394.288, 416.624 397.005, 419.750 396.967 C 422.612 396.932, 427 393.981, 427 392.090 C 427 390.807, 424.139 390.748, 422 391.987 M 579.787 426 C 580.694 431.726, 580.710 455.901, 579.813 467 C 579.282 473.581, 579.368 474.823, 580.194 472.500 C 581.719 468.213, 581.766 427.226, 580.249 424 C 579.233 421.837, 579.170 422.107, 579.787 426 M 561.973 427.670 C 556.497 431.370, 547.084 440.193, 545.192 443.399 L 543.181 446.807 547.688 444.814 C 550.762 443.454, 553.585 442.959, 556.567 443.257 C 562.747 443.874, 564.849 441.426, 565.667 432.662 C 566.332 425.540, 565.930 424.997, 561.973 427.670 M 537.750 467.577 C 537.337 467.993, 537.014 469.496, 537.030 470.917 C 537.057 473.183, 537.188 473.281, 538.098 471.719 C 539.236 469.762, 538.951 466.365, 537.750 467.577 M 578.232 480 C 578.232 481.925, 578.438 482.712, 578.689 481.750 C 578.941 480.788, 578.941 479.212, 578.689 478.250 C 578.438 477.288, 578.232 478.075, 578.232 480 M 373 488.932 C 373 492.479, 391.326 498.721, 404.500 499.662 L 412.500 500.234 409.417 497.326 C 404.245 492.447, 373 485.246, 373 488.932 M 230.031 504.750 C 225.704 520.019, 229.057 531.244, 239.246 535.597 C 242.726 537.084, 245.829 537.377, 256.302 537.207 C 268.639 537.006, 269.492 537.130, 279.802 540.616 C 295.050 545.772, 301.206 546.048, 313.304 542.115 C 322.614 539.088, 323.538 538.982, 341.161 538.923 C 351.869 538.888, 360.236 538.427, 361.444 537.806 C 364.206 536.387, 367.958 532.919, 369.176 530.659 C 369.995 529.138, 369.379 529.280, 365.644 531.468 L 361.120 534.120 359.060 532.060 C 357.927 530.927, 356.999 529.438, 356.998 528.750 C 356.997 528.063, 355.038 526.263, 352.643 524.750 C 345.264 520.088, 333.724 521.184, 324.262 527.446 C 320.490 529.942, 320 530.012, 312.369 529.158 C 306.178 528.466, 302.897 527.451, 297.595 524.588 C 286.135 518.400, 281.403 516.992, 269.871 516.337 C 260.971 515.831, 258.693 516.013, 255.871 517.453 C 250.672 520.106, 242.071 520.605, 237.985 518.492 C 232.128 515.463, 231.475 514.290, 231.774 507.323 C 231.923 503.845, 231.831 501, 231.569 501 C 231.308 501, 230.616 502.688, 230.031 504.750 M 572.667 510.667 C 571.697 515.380, 571.089 519.423, 571.317 519.650 C 571.545 519.878, 572.538 516.221, 573.524 511.524 C 574.510 506.826, 575.117 502.784, 574.873 502.540 C 574.630 502.297, 573.637 505.953, 572.667 510.667 M 567.556 534.556 C 567.179 536.562, 567.071 538.404, 567.315 538.649 C 567.560 538.893, 568.068 537.451, 568.444 535.444 C 568.821 533.438, 568.929 531.596, 568.685 531.351 C 568.440 531.107, 567.932 532.549, 567.556 534.556 M 70.042 539.750 C 68.170 543.777, 66 554.782, 66 560.250 C 66 562.862, 65.638 565, 65.195 565 C 64.435 565, 63.787 577.377, 63.588 595.667 C 63.540 600.158, 63.204 604.130, 62.841 604.492 C 62.479 604.854, 62.495 606.354, 62.875 607.825 C 63.256 609.296, 63.328 612.300, 63.034 614.500 C 61.736 624.220, 66.338 658.855, 69.159 660.598 C 69.622 660.884, 70 661.794, 70 662.621 C 70 664.199, 74.877 675.139, 75.965 676 C 76.312 676.275, 77.660 678.075, 78.959 680 C 80.259 681.925, 82.092 684.175, 83.033 685 C 87.050 688.522, 104 707.136, 104 708.026 C 104 708.562, 103.147 709, 102.105 709 C 99.497 709, 99.281 711.265, 98.017 751.866 C 97.428 770.767, 96.524 787.020, 96.008 787.984 C 95.492 788.948, 95.355 790.021, 95.702 790.369 C 96.049 790.716, 161.331 791, 240.774 791 C 369.502 791, 385.151 790.835, 384.632 789.482 C 384.016 787.879, 386.844 781, 388.118 781 C 388.799 781, 393.322 773.219, 398.109 763.814 C 399.141 761.786, 400.439 759.847, 400.993 759.505 C 401.547 759.162, 402 758.232, 402 757.438 C 402 754.302, 407.902 746.794, 414.500 741.536 C 418.321 738.491, 421.754 736, 422.130 736 C 422.505 736, 422.591 736.847, 422.321 737.881 C 421.647 740.456, 424.308 742.705, 435.250 748.810 C 440.338 751.648, 446.051 754.977, 447.947 756.208 C 449.842 757.439, 451.076 757.932, 450.688 757.304 C 449.967 756.138, 433.618 746, 432.458 746 C 431.179 746, 424.042 740.471, 424.021 739.463 C 424.001 738.461, 433.305 731, 434.576 731 C 434.922 731, 439.546 728.111, 444.852 724.581 C 460.259 714.330, 475.380 699.754, 487.382 683.584 C 491.022 678.681, 494 674.216, 494 673.663 C 494 673.110, 494.632 671.947, 495.405 671.079 C 496.965 669.325, 500.818 661.838, 506.767 649 C 510.868 640.150, 518.527 618.194, 517.776 617.442 C 517.538 617.205, 515.673 622.071, 513.632 628.255 C 507.145 647.904, 494.407 672.260, 483.694 685.500 C 474.750 696.553, 458.263 712.219, 459.649 708.348 C 460.013 707.332, 460.800 705.873, 461.397 705.106 C 462.287 703.965, 462.031 703.841, 459.992 704.424 C 451.713 706.791, 440.964 711.946, 418 724.559 C 412.225 727.731, 402.775 732.715, 397 735.635 C 391.225 738.554, 382.900 742.980, 378.500 745.470 C 370.600 749.941, 361.240 754.647, 351.500 759.046 C 335.932 766.076, 313.257 769.117, 291.263 767.124 C 277.094 765.840, 263.149 763.702, 257 761.871 C 235.767 755.550, 211.034 741.858, 198.525 729.500 C 195.741 726.750, 190.547 722.032, 186.982 719.016 C 178.676 711.990, 148.830 682.008, 145.899 677.748 C 144.671 675.962, 142.053 672.891, 140.083 670.924 C 138.112 668.957, 134.250 664.008, 131.500 659.927 C 128.750 655.846, 124.306 649.440, 121.625 645.692 C 115.944 637.750, 109.471 624.815, 107.845 618.157 C 107.220 615.596, 106.142 612.369, 105.451 610.987 C 104.760 609.605, 103.676 605.555, 103.042 601.987 C 102.408 598.419, 101.484 593.925, 100.989 592 C 100.493 590.075, 99.339 584.450, 98.425 579.500 C 97.283 573.313, 95.380 567.687, 92.339 561.500 C 86.691 550.011, 85.858 548.592, 82.644 544.985 C 81.185 543.347, 80.009 541.765, 80.031 541.468 C 80.053 541.171, 79.380 540.238, 78.536 539.393 C 77.691 538.548, 77 538.204, 77 538.629 C 77 539.053, 76.460 538.860, 75.800 538.200 C 73.799 536.199, 71.392 536.846, 70.042 539.750 M 565.092 547.244 C 562.896 560.203, 562.726 561.507, 563.307 560.977 C 564.084 560.267, 567.331 540.998, 566.769 540.436 C 566.523 540.190, 565.769 543.254, 565.092 547.244 M 29.115 551.300 C 28.820 561.042, 19.822 568.213, 6.093 569.648 C 1.414 570.137, 0 570.660, 0 571.900 C 0 573.284, 1.179 573.465, 8.250 573.168 C 16.897 572.805, 22.214 570.736, 26.406 566.104 C 28.840 563.415, 29.755 563.449, 30.294 566.250 C 30.533 567.487, 30.763 565.575, 30.806 562 C 30.849 558.425, 30.512 553.700, 30.057 551.500 L 29.230 547.500 29.115 551.300 M 427.480 564.008 C 427.902 565.379, 429.092 567.305, 430.124 568.289 C 431.156 569.273, 432 570.585, 432 571.206 C 432 571.826, 432.284 572.049, 432.631 571.702 C 433.474 570.859, 430.463 564.629, 428.374 562.896 C 426.879 561.654, 426.789 561.766, 427.480 564.008 M 562.286 569.500 C 562.294 572.250, 562.488 573.256, 562.718 571.736 C 562.947 570.216, 562.941 567.966, 562.704 566.736 C 562.467 565.506, 562.279 566.750, 562.286 569.500 M 31.286 575.500 C 31.294 578.250, 31.488 579.256, 31.718 577.736 C 31.947 576.216, 31.941 573.966, 31.704 572.736 C 31.467 571.506, 31.279 572.750, 31.286 575.500 M 560.214 580.654 C 559.598 582.663, 559.490 583.900, 559.976 583.404 C 560.954 582.402, 562.473 577, 561.776 577 C 561.534 577, 560.831 578.644, 560.214 580.654 M 32.102 583.500 C 31.879 590.616, 38.484 621.955, 40.614 623.883 C 40.989 624.222, 40.992 623.375, 40.622 622 C 37.801 611.529, 34.845 597.991, 33.635 590 C 32.844 584.775, 32.154 581.850, 32.102 583.500 M 175.750 583.721 C 173.337 584.082, 173 584.573, 173 587.722 C 173 590.004, 173.905 592.498, 175.486 594.570 C 178.867 599.004, 192.518 609.154, 199.613 612.510 C 209.644 617.256, 230.560 622.945, 242 624.039 C 247.775 624.592, 257.225 625.485, 263 626.024 C 268.775 626.562, 276.923 627.395, 281.107 627.875 C 285.487 628.377, 296.518 628.364, 307.107 627.845 C 317.223 627.349, 329.550 626.974, 334.500 627.011 C 350.410 627.132, 361.695 625.411, 374.627 620.890 C 390.928 615.191, 398.142 611.334, 409.411 602.292 C 412.549 599.774, 412.580 596.360, 409.462 596.738 C 396.015 598.366, 389.040 598.114, 377 595.567 C 345.657 588.936, 344.945 588.851, 317.500 588.519 C 300.885 588.319, 287.349 587.630, 280 586.611 C 265.435 584.591, 250.823 584.582, 228.300 586.577 C 207.690 588.402, 194.940 587.638, 179.878 583.673 C 179.120 583.473, 177.262 583.495, 175.750 583.721 M 555.585 588.478 C 551.244 594.168, 544.752 597.375, 537.571 597.375 C 533.832 597.375, 530.141 596.718, 528.067 595.683 C 526.201 594.753, 524.553 594.114, 524.403 594.263 C 523.777 594.889, 519.210 609.780, 518.656 613 C 518.326 614.925, 518.964 613.575, 520.076 610 C 523.963 597.494, 523.508 598.062, 528.314 599.737 C 533.534 601.557, 541.333 600.891, 546.667 598.170 C 550.634 596.146, 559 587.906, 559 586.022 C 559 584.363, 558.387 584.804, 555.585 588.478 M 265.728 596.657 C 264.204 596.921, 262.252 598.211, 261.392 599.524 L 259.828 601.912 257.660 599.391 L 255.493 596.871 246.857 598.120 L 238.221 599.369 237.611 603.824 C 237.275 606.274, 237 610.226, 237 612.604 C 237 618.291, 238.605 619.089, 250.847 619.490 C 257.733 619.716, 262.029 620.413, 265.834 621.922 C 268.768 623.085, 274.492 624.531, 278.553 625.136 C 285.325 626.143, 286.226 626.064, 289.398 624.193 C 292.850 622.156, 292.860 622.156, 294.181 624.146 C 295.336 625.886, 296.994 626.213, 307.166 626.714 L 318.828 627.289 321.393 624.521 L 323.959 621.753 327.651 623.505 C 332.008 625.572, 343.224 625.013, 345.895 622.595 C 347.081 621.521, 347.984 621.411, 349.346 622.174 C 351.431 623.341, 359.539 621.523, 360.768 619.613 C 362.917 616.274, 363.781 611.670, 362.792 608.834 C 361.547 605.262, 358.640 604, 351.657 604 C 347.763 604, 346.031 603.517, 344.808 602.089 C 342.771 599.709, 333.176 597.626, 328.160 598.473 C 326.098 598.821, 323.133 598.621, 321.573 598.028 C 318.328 596.794, 302.589 596.344, 299.320 597.392 C 298.120 597.776, 296.290 599.432, 295.252 601.071 L 293.365 604.051 292.122 601.728 C 290.006 597.775, 287.076 596.713, 277.521 596.437 C 272.560 596.294, 267.253 596.393, 265.728 596.657 M 231 602.934 C 231 603.447, 229.762 604.010, 228.250 604.184 C 226.068 604.435, 225.018 605.510, 223.166 609.389 C 220.412 615.157, 221.016 615.961, 228.122 615.985 C 232.725 616, 232.747 615.983, 233.368 612.102 C 234.064 607.745, 233.216 602, 231.875 602 C 231.394 602, 231 602.420, 231 602.934 M 213.396 606.275 C 213.978 608.741, 217.199 613, 218.483 613 C 219.110 613, 215.126 605.804, 213.777 604.500 C 213.067 603.815, 212.948 604.373, 213.396 606.275 M 369.055 609.882 C 366.298 610.651, 364.094 616.494, 365.885 618.285 C 368.078 620.478, 374.830 613.605, 373.608 610.422 C 373.019 608.885, 372.743 608.853, 369.055 609.882 M 42.068 628.212 C 41.769 631.352, 53.802 656.403, 60.075 665.704 C 63.619 670.957, 74.138 683.280, 77.828 686.500 C 79.109 687.617, 80.525 690.100, 80.976 692.016 L 81.795 695.500 81.898 692.235 C 81.985 689.458, 80.736 687.620, 73.535 679.922 C 68.879 674.946, 63.027 667.802, 60.531 664.047 C 56.796 658.428, 48.065 641.263, 43.212 630 C 42.620 628.625, 42.105 627.821, 42.068 628.212 M 251.783 655.551 C 251.411 655.922, 252.096 657.565, 253.304 659.202 C 256.258 663.205, 262.993 666.099, 274 668.094 C 280.894 669.344, 303.156 669.244, 304.442 667.958 C 304.969 667.431, 306.155 667, 307.078 667 C 308 667, 309.284 666.363, 309.929 665.585 C 310.916 664.397, 310.015 664.072, 304.302 663.556 C 292.435 662.484, 276.738 659.997, 269.500 658.041 C 261.195 655.797, 252.727 654.606, 251.783 655.551 M 81.116 719.097 C 81.052 719.976, 79.987 721.216, 78.750 721.852 C 76.540 722.990, 76.544 722.999, 79 722.381 C 82.204 721.574, 82.267 721.504, 81.704 719.328 C 81.342 717.924, 81.205 717.870, 81.116 719.097 M 61.250 728.464 C 58.362 729.808, 56 731.129, 56 731.399 C 56 731.835, 66.878 727.228, 67.917 726.352 C 69.204 725.265, 65.812 726.340, 61.250 728.464 M 44 737.622 C 38.775 740.662, 33.825 743.822, 33 744.645 C 32.175 745.467, 36 743.486, 41.500 740.243 C 47 736.999, 52.400 733.831, 53.500 733.203 C 54.600 732.575, 55.050 732.068, 54.500 732.077 C 53.950 732.086, 49.225 734.581, 44 737.622 M 69 744.137 C 55.061 751.539, 50.229 754.982, 42.693 762.883 C 36.279 769.608, 33.455 775.021, 32.456 782.506 C 32.090 785.253, 31.619 787.681, 31.411 787.901 C 31.202 788.122, 31.812 788.895, 32.766 789.619 C 34.084 790.621, 40.190 790.944, 58.250 790.968 L 82 791 82 764.500 C 82 749.925, 81.662 738.007, 81.250 738.015 C 80.838 738.023, 75.325 740.778, 69 744.137 M 11.596 758.038 C 6.698 761.267, 2.198 764.432, 1.596 765.073 C 0.993 765.713, 4.550 763.651, 9.500 760.490 C 21.021 753.132, 22.660 751.981, 21.473 752.084 C 20.938 752.130, 16.493 754.810, 11.596 758.038 M 415.038 759.399 C 414.231 761.522, 410 787.156, 410 789.923 C 410 791.574, 445.695 791.403, 446.261 789.750 C 446.893 787.905, 440.344 778.275, 434.343 772.224 C 430.132 767.978, 417.332 757, 416.591 757 C 416.239 757, 415.540 758.080, 415.038 759.399 M 452.391 758.824 C 452.726 759.366, 455.138 761.060, 457.750 762.588 C 461.571 764.823, 475.454 774.634, 482.942 780.391 C 484.036 781.232, 484.205 781.202, 483.642 780.265 C 483.234 779.586, 479.885 776.906, 476.200 774.310 C 472.515 771.714, 467.654 768.107, 465.397 766.295 C 463.140 764.483, 460.994 763, 460.627 763 C 460.260 763, 458.120 761.838, 455.871 760.418 C 453.621 758.998, 452.056 758.281, 452.391 758.824 M 485.263 781.617 C 485.578 782.126, 487.976 784.080, 490.593 785.959 C 493.209 787.838, 495.024 788.847, 494.624 788.201 C 494.225 787.555, 491.826 785.601, 489.295 783.859 C 486.763 782.117, 484.949 781.108, 485.263 781.617" stroke="none" fill="#1c1715" fill-rule="evenodd"/><path d="M 173.476 1.396 C 171.813 2.120, 164.289 4.836, 156.756 7.430 C 149.223 10.024, 136.729 15.264, 128.992 19.073 C 121.255 22.883, 114.713 26, 114.455 26 C 114.197 26, 110.501 28.378, 106.243 31.285 C 101.984 34.192, 95.024 38.717, 90.775 41.341 C 75.048 51.052, 51.560 71.850, 43.728 83 C 41.990 85.475, 37.840 91.100, 34.507 95.500 C 27.709 104.473, 19.887 119.640, 17.449 128.576 C 16.376 132.509, 15.354 143.909, 14.408 162.500 C 12.619 197.657, 11.572 212.222, 8.979 238 C 4.900 278.564, 5.356 334.508, 10.062 370.739 C 11.171 379.273, 11.937 386.396, 11.766 386.568 C 11.594 386.740, 9.328 385.557, 6.730 383.940 C 4.132 382.323, 1.555 381, 1.003 381 C 0.374 381, -0 386.928, -0 396.878 C -0 410.051, 0.266 412.976, 1.562 414.051 C 3.620 415.760, 8.566 423.462, 14.479 434.169 C 18.720 441.848, 19.508 442.749, 21.383 442.064 C 22.547 441.639, 24 440.308, 24.611 439.107 C 25.223 437.906, 26.410 436.378, 27.250 435.712 C 28.955 434.359, 29.766 430.633, 30.576 420.419 C 31.257 411.842, 29.181 403.183, 25.021 397.250 C 22.299 393.368, 22.211 393, 24.008 393 C 25.089 393, 31.493 390.323, 38.237 387.052 C 50.007 381.343, 66.895 376, 73.170 376 C 76.802 376, 78 373.571, 78 366.205 C 78 362.946, 78.286 358.192, 78.636 355.642 C 79.228 351.317, 79.523 350.936, 82.994 350.002 C 85.042 349.450, 96.343 347.797, 108.109 346.328 C 135.224 342.943, 172.339 342.536, 193.500 345.394 C 225.546 349.720, 248.016 356.551, 276.841 370.729 L 290.183 377.291 304.341 378.130 C 312.129 378.591, 319.513 379.209, 320.751 379.503 C 321.989 379.798, 327.164 380.061, 332.251 380.088 C 340.850 380.134, 342.361 379.815, 353.756 375.552 C 379.254 366.012, 400.762 362.491, 428.500 363.317 C 457.863 364.192, 485.862 368.306, 519.500 376.688 C 531.600 379.703, 542.441 382.396, 543.592 382.672 C 544.769 382.954, 546.382 382.476, 547.278 381.579 C 548.155 380.702, 549.070 380.326, 549.311 380.742 C 549.552 381.159, 549.144 387.279, 548.405 394.343 C 547.666 401.406, 547.158 407.481, 547.275 407.843 C 547.393 408.204, 544.195 411.875, 540.170 416 C 536.144 420.125, 532.244 424.647, 531.503 426.049 C 530.762 427.451, 527.899 436.522, 525.140 446.206 C 519.584 465.706, 516.269 473.167, 510.006 480.266 C 499.366 492.327, 484.812 495.144, 443.500 493.136 C 408.337 491.427, 372.790 486.032, 362.356 480.821 C 357.016 478.154, 350.310 471.064, 346.142 463.677 C 343.178 458.425, 341.684 454.432, 335.975 436.500 C 331.926 423.784, 329.451 419.527, 322.309 413 L 316.547 407.733 307.023 408.418 C 301.786 408.794, 296.938 409.154, 296.250 409.218 C 295.563 409.281, 295 409.708, 295 410.167 C 295 410.625, 294.550 411, 294 411 C 292.192 411, 292.953 408.892, 295.750 406.155 C 297.627 404.318, 300.882 402.880, 306.001 401.626 C 314.989 399.425, 320.029 400.331, 325.493 405.128 C 328.493 407.762, 333.446 416.372, 335.425 422.393 C 336.782 426.522, 336.776 423.097, 335.415 416.604 C 333.823 409.007, 330.842 401.589, 328.212 398.678 C 322.876 392.773, 310.523 390.235, 303.451 393.590 C 298.348 396.012, 296.006 399.815, 284.355 424.611 C 271.335 452.317, 267.205 459.637, 261.212 465.630 C 254.884 471.958, 250.501 474.653, 243.650 476.427 C 234.835 478.711, 212.212 479.371, 186.318 478.100 C 130.910 475.382, 111.750 469.592, 102.096 452.646 C 97.295 444.219, 95.822 436.824, 93.524 409.618 C 92.707 399.943, 91.390 390.475, 90.598 388.580 C 88.683 383.997, 84.128 381.780, 75.500 381.235 C 63.490 380.475, 51.070 384.822, 42.271 392.865 C 36.341 398.286, 35.261 403.127, 34.026 429.844 C 32.846 455.379, 32.297 460.051, 30.555 459.383 C 29.820 459.101, 28.845 460.575, 28.083 463.117 C 26.247 469.246, 22.234 475.191, 20.198 474.801 C 19.264 474.623, 17.600 472.795, 16.500 470.741 C 11.822 462.004, 11.822 469.200, 16.500 487.291 C 20.892 504.277, 20.888 505.974, 16.474 499.046 C 14.563 496.047, 13 493.187, 13 492.692 C 13 492.196, 11.886 489.572, 10.524 486.860 C 7.467 480.774, 6.064 469.699, 6.341 453.832 C 6.453 447.414, 6.194 442.380, 5.765 442.645 C 4.952 443.148, 4.552 442.267, 3.592 437.860 C 3.276 436.408, 2.338 434.960, 1.509 434.642 C 0.173 434.129, 0 441.868, 0 502.174 L 0 570.285 6.093 569.648 C 19.825 568.213, 29 560.897, 29 551.383 C 29 542.954, 30.144 549.727, 31.067 563.623 C 33.466 599.741, 39.232 623.500, 51.603 648.247 C 58.161 661.366, 63.817 669.535, 73.535 679.922 L 82 688.971 82 705.485 C 82 716.600, 81.648 722, 80.925 722 C 80.333 722, 75.225 723.808, 69.573 726.018 C 57.568 730.712, 42.386 739.231, 17.751 755.097 L 0.048 766.500 0.024 778.750 L 0 791 17.250 790.968 C 31.734 790.941, 34.222 790.725, 32.766 789.619 C 31.812 788.895, 31.202 788.122, 31.411 787.901 C 31.619 787.681, 32.090 785.253, 32.456 782.506 C 32.823 779.759, 33.975 775.584, 35.018 773.227 C 37.154 768.397, 46.201 758.481, 52.987 753.530 C 57.267 750.408, 79.914 738, 81.333 738 C 81.700 738, 82 749.925, 82 764.500 L 82 791 89 791 C 92.850 791, 95.926 790.663, 95.836 790.250 C 95.746 789.837, 95.979 788.375, 96.355 787 C 96.731 785.625, 97.500 769.425, 98.063 751 C 99.277 711.331, 99.501 709, 102.105 709 C 103.147 709, 104 708.562, 104 708.026 C 104 707.136, 87.050 688.522, 83.033 685 C 82.092 684.175, 80.259 681.925, 78.959 680 C 77.660 678.075, 76.312 676.275, 75.965 676 C 74.877 675.139, 70 664.199, 70 662.621 C 70 661.794, 69.622 660.884, 69.159 660.598 C 66.338 658.855, 61.736 624.220, 63.034 614.500 C 63.328 612.300, 63.256 609.296, 62.875 607.825 C 62.495 606.354, 62.479 604.854, 62.841 604.492 C 63.204 604.130, 63.540 600.158, 63.588 595.667 C 63.787 577.377, 64.435 565, 65.195 565 C 65.638 565, 66 562.862, 66 560.250 C 66 554.782, 68.170 543.777, 70.042 539.750 C 71.392 536.846, 73.799 536.199, 75.800 538.200 C 76.460 538.860, 77 539.053, 77 538.629 C 77 538.204, 77.787 538.645, 78.750 539.607 C 79.713 540.570, 80.484 541.614, 80.465 541.929 C 80.446 542.243, 81.525 543.729, 82.863 545.231 C 88.778 551.870, 96.437 568.735, 98.425 579.500 C 99.339 584.450, 100.493 590.075, 100.989 592 C 101.484 593.925, 102.408 598.419, 103.042 601.987 C 103.676 605.555, 104.760 609.605, 105.451 610.987 C 106.142 612.369, 107.220 615.596, 107.845 618.157 C 109.471 624.815, 115.944 637.750, 121.625 645.692 C 124.306 649.440, 128.750 655.846, 131.500 659.927 C 134.250 664.008, 138.112 668.957, 140.083 670.924 C 142.053 672.891, 144.671 675.962, 145.899 677.748 C 148.830 682.008, 178.676 711.990, 186.982 719.016 C 190.547 722.032, 195.741 726.750, 198.525 729.500 C 211.034 741.858, 235.767 755.550, 257 761.871 C 263.149 763.702, 277.094 765.840, 291.263 767.124 C 313.257 769.117, 335.932 766.076, 351.500 759.046 C 361.240 754.647, 370.600 749.941, 378.500 745.470 C 382.900 742.980, 391.225 738.554, 397 735.635 C 402.775 732.715, 412.225 727.731, 418 724.559 C 440.964 711.946, 451.713 706.791, 459.992 704.424 C 462.031 703.841, 462.287 703.965, 461.397 705.106 C 460.800 705.873, 460.013 707.332, 459.649 708.348 C 458.815 710.677, 466.371 704.381, 474.074 696.328 C 495.608 673.814, 506.363 652.624, 521.568 602.750 C 523.035 597.937, 524.338 594, 524.464 594 C 524.590 594, 526.215 594.759, 528.075 595.687 C 530.141 596.718, 533.838 597.375, 537.571 597.375 C 545.097 597.375, 551.289 594.121, 556.334 587.514 C 560.372 582.225, 561.458 578.206, 562.955 563 C 563.578 556.675, 565.618 544.300, 567.488 535.500 C 578.418 484.067, 580.298 471.048, 580.414 446 C 580.493 429.117, 580.293 426.869, 578.136 420.284 C 574.461 409.071, 568.596 404, 559.301 404 C 557.431 404, 554.573 404.687, 552.950 405.526 C 551.159 406.452, 550 406.634, 550 405.989 C 550 405.405, 552.271 395.876, 555.047 384.813 C 563.090 352.757, 564.280 339.662, 564.294 283 C 564.319 181.342, 563.960 156.676, 562.336 148.365 C 561.490 144.039, 560.473 137.350, 560.075 133.500 C 559.677 129.650, 558.871 125.361, 558.283 123.968 C 555.500 117.369, 552.461 111.376, 551.291 110.179 C 550.581 109.452, 550 108.079, 550 107.129 C 550 106.178, 549.571 104.971, 549.047 104.447 C 548.524 103.924, 547.592 100.121, 546.976 95.997 C 545.267 84.541, 545.185 84.108, 544.485 82.976 C 544.126 82.394, 542.970 82.192, 541.916 82.527 C 540.654 82.927, 540 82.659, 540 81.742 C 540 79.770, 535.026 75.202, 534.918 77.076 C 534.874 77.859, 534.243 77.150, 533.517 75.500 C 532.791 73.850, 530.352 70.794, 528.098 68.710 C 525.844 66.625, 524 64.494, 524 63.973 C 524 62.652, 518.736 55.199, 517.409 54.642 C 515.915 54.016, 513.914 55.380, 513.646 57.210 C 513.524 58.040, 512.646 59.497, 511.695 60.448 C 510.056 62.087, 509.793 62.026, 506.664 59.278 C 504.849 57.684, 501.365 54.382, 498.922 51.940 C 490.912 43.931, 481.733 36.169, 478.084 34.318 C 476.113 33.318, 474.350 32.163, 474.167 31.750 C 473.983 31.338, 473.389 31, 472.845 31 C 472.302 31, 471.254 30.437, 470.516 29.750 C 469.779 29.062, 466.860 26.925, 464.030 25 C 461.199 23.075, 457.406 20.278, 455.600 18.785 C 452.402 16.142, 447.094 13.573, 446.355 14.312 C 446.153 14.514, 446.893 15.724, 448 17 C 450.360 19.722, 450 20.606, 447.151 19.081 C 444.530 17.678, 443.847 17.717, 444.199 19.250 C 444.782 21.788, 442.759 21.194, 429 14.787 C 424.325 12.610, 416.869 8.393, 412.431 5.415 C 407.993 2.437, 403.315 0, 402.035 0 L 399.708 0 402.153 2.250 C 403.497 3.488, 406.260 5.625, 408.292 7 C 412.851 10.085, 412.994 11.133, 408.750 10.353 C 405.640 9.782, 405.586 9.825, 407.500 11.346 C 409.481 12.921, 409.478 12.937, 407.240 12.968 C 405.997 12.986, 404.210 12.100, 403.268 11 C 402.326 9.900, 401.178 9, 400.716 9 C 400.254 9, 397.542 7.908, 394.688 6.573 C 391.835 5.238, 386.800 3.367, 383.500 2.415 C 376.183 0.305, 362.009 -0.633, 361.044 0.929 C 360.567 1.700, 358.818 1.724, 355.049 1.009 C 348.350 -0.261, 224.793 -0.369, 223.450 0.894 C 222.927 1.386, 218.450 3, 213.500 4.482 C 182.307 13.822, 145.031 32.456, 131.462 45.493 C 128.213 48.616, 122.712 53.039, 119.239 55.322 C 112.900 59.490, 112.112 61.545, 118.025 58.487 C 122.131 56.364, 122.887 57.185, 119.303 59.875 C 117.761 61.032, 115.963 62.427, 115.307 62.976 C 114.650 63.524, 112.359 64.887, 110.216 66.004 C 108.072 67.122, 102.807 71.403, 98.514 75.518 C 94.222 79.633, 90.325 83, 89.855 83 C 88.214 83, 89.019 81.130, 91.500 79.179 C 92.875 78.097, 94 76.928, 94 76.580 C 94 74.768, 87.144 79.993, 78.409 88.462 C 71.889 94.784, 67.812 98, 66.317 98 C 64.181 98, 64.274 97.696, 68.077 92.250 C 70.285 89.088, 75.671 82.861, 80.046 78.412 C 87.060 71.281, 89.375 68, 87.394 68 C 86.643 68, 81.269 72.252, 78.250 75.235 C 74.909 78.535, 75.521 76.199, 79.623 69.987 C 84.404 62.747, 95.256 51.591, 101.500 47.497 C 107.522 43.548, 111.500 40.148, 111.500 38.950 C 111.500 37.797, 120.655 32, 122.476 32 C 123.249 32, 124.160 31.550, 124.500 31 C 124.840 30.450, 126.018 30, 127.118 30 C 128.218 30, 128.840 29.550, 128.500 29 C 128.160 28.450, 128.380 28, 128.989 28 C 129.598 28, 131.959 27.100, 134.236 26 C 136.513 24.900, 138.966 24, 139.688 24 C 140.410 24, 140.887 23.459, 140.750 22.797 C 140.612 22.135, 141.302 21.572, 142.283 21.547 C 143.264 21.521, 144.389 21.038, 144.783 20.472 C 145.177 19.907, 147.525 18.608, 150 17.586 C 152.475 16.563, 156.750 14.695, 159.500 13.435 C 166.691 10.139, 184.110 4.460, 194 2.187 L 202.500 0.234 189.500 0.156 C 180.784 0.104, 175.504 0.512, 173.476 1.396 M 365.913 3.054 C 363.936 4.275, 364.858 4.696, 371 5.373 C 376.012 5.926, 376.328 5.847, 374.559 4.490 C 373.491 3.670, 372.141 2.966, 371.559 2.923 C 370.976 2.881, 369.773 2.705, 368.884 2.532 C 367.995 2.358, 366.658 2.593, 365.913 3.054 M 254.500 13.676 C 253.400 13.920, 250.803 14.768, 248.730 15.560 C 246.656 16.352, 243.797 17, 242.376 17 C 240.955 17, 236.127 18.089, 231.646 19.420 C 227.166 20.751, 218.325 23.063, 212 24.556 C 200.032 27.383, 181.197 33.493, 179.550 35.083 C 179.028 35.587, 177.879 36, 176.997 36 C 174.474 36, 154.419 46.323, 148.190 50.828 C 146.420 52.109, 144.461 52.987, 143.838 52.779 C 142.635 52.378, 148.483 47.421, 153.500 44.590 L 156.500 42.896 153.613 43.501 C 150.779 44.096, 145.243 47.682, 141.711 51.212 C 140.727 52.195, 139.491 53, 138.964 53 C 138.437 53, 136.317 54.516, 134.253 56.369 C 132.189 58.222, 127.800 61.452, 124.500 63.547 C 121.200 65.641, 118.050 67.897, 117.500 68.559 C 116.950 69.221, 112.900 72.381, 108.500 75.580 C 104.100 78.779, 100.006 82.051, 99.402 82.851 C 98.798 83.651, 97.823 84.009, 97.236 83.646 C 96.650 83.283, 94.762 84.171, 93.042 85.618 C 89.395 88.687, 89.646 89.934, 93.413 87.465 C 94.836 86.533, 96 86.182, 96 86.685 C 96 88.102, 85.836 99.170, 85.158 98.491 C 84.828 98.161, 84.995 97.574, 85.529 97.187 C 87.803 95.537, 91.256 91, 90.237 91 C 88.957 91, 82.022 98.062, 82.009 99.379 C 82.004 99.862, 80.292 102.787, 78.204 105.879 C 72.386 114.494, 68.757 121.090, 69.452 121.785 C 69.797 122.130, 70.331 121.451, 70.638 120.276 C 70.946 119.100, 71.751 118.351, 72.428 118.611 C 73.135 118.882, 74.415 117.405, 75.437 115.139 C 76.991 111.693, 85 102.546, 85 104.218 C 85 104.561, 82.690 108.566, 79.866 113.119 C 77.042 117.672, 74.057 122.995, 73.232 124.948 C 71.900 128.102, 71.647 128.276, 70.968 126.500 C 70.294 124.734, 70.017 124.935, 68.602 128.218 C 67.721 130.263, 66.975 132.738, 66.944 133.718 C 66.873 135.978, 63.131 144.991, 63.056 143.083 C 62.930 139.882, 61.983 143.072, 60.998 150.017 C 60.421 154.085, 59.575 157.658, 59.118 157.957 C 58.661 158.256, 57.965 161.409, 57.570 164.965 C 57.175 168.521, 56.599 171.840, 56.290 172.340 C 55.325 173.900, 53.031 165.738, 53.015 160.691 C 53.005 157.550, 52.631 156.110, 51.936 156.540 C 51.297 156.934, 50.981 160.138, 51.146 164.555 C 51.297 168.602, 51.100 172.233, 50.710 172.623 C 49.802 173.531, 49.905 173.733, 47.088 165.500 C 44.339 157.464, 42.528 154.336, 41.545 155.927 C 40.141 158.200, 38.996 156.825, 38.900 152.750 C 38.845 150.412, 38.502 147.436, 38.137 146.135 C 37.491 143.831, 37.339 143.896, 32.301 148.635 C 29.457 151.311, 26.650 154.767, 26.065 156.315 C 24.621 160.131, 24.716 171.572, 26.210 173.965 C 27.148 175.467, 27.157 177.206, 26.248 181.701 C 25.102 187.375, 24.470 195.961, 23.512 218.878 C 23.251 225.135, 22.597 231.660, 22.059 233.378 C 20.875 237.161, 18.022 266.582, 17.830 277 C 17.754 281.125, 17.300 285.572, 16.820 286.882 C 15.348 290.908, 16.629 292.755, 21.198 293.190 C 24.492 293.504, 25.788 293.121, 27.617 291.292 C 28.878 290.031, 30.556 289, 31.348 289 C 32.139 289, 33.056 288.296, 33.386 287.437 C 34.083 285.619, 36 286.442, 36 288.559 C 36 289.352, 35.127 290, 34.059 290 C 32.991 290, 31.840 290.450, 31.500 291 C 31.160 291.550, 31.809 292, 32.941 292 C 35.260 292, 39.147 288.567, 38.927 286.714 C 38.848 286.046, 39.109 284.488, 39.508 283.250 C 40.454 280.316, 43.236 280.238, 42.813 283.157 C 42.339 286.423, 44.825 286.552, 46.172 283.331 C 47.300 280.635, 47.376 280.608, 47.748 282.750 C 47.963 283.988, 48.594 285, 49.149 285 C 49.762 285, 49.890 283.723, 49.474 281.750 C 48.914 279.093, 49.028 278.728, 50.095 279.750 C 51.879 281.459, 54 281.323, 54 279.500 C 54 278.675, 54.498 278, 55.107 278 C 55.716 278, 55.998 278.563, 55.734 279.250 C 55.137 280.803, 60.257 280.723, 64.315 279.115 C 65.863 278.502, 67.790 278, 68.596 278 C 69.403 278, 70.344 277.212, 70.687 276.250 C 71.030 275.288, 71.803 273.884, 72.405 273.131 C 73.927 271.227, 80.292 259.766, 84.068 252.128 C 85.885 248.454, 88.019 245.546, 89.109 245.261 C 90.149 244.989, 91 244.369, 91 243.883 C 91 243.398, 91.675 243, 92.500 243 C 93.325 243, 94 243.338, 94 243.750 C 94 244.162, 95.463 244.554, 97.250 244.620 C 99.037 244.686, 102.300 245.277, 104.500 245.932 C 106.700 246.588, 109.400 247.231, 110.500 247.361 C 111.600 247.492, 113.569 248.185, 114.877 248.902 C 116.184 249.619, 119.920 250.373, 123.180 250.577 C 126.440 250.781, 129.452 251.162, 129.875 251.423 C 130.298 251.684, 131.818 251.288, 133.254 250.543 C 134.690 249.798, 137.133 248.906, 138.683 248.561 C 141.171 248.006, 144.756 245.936, 153.919 239.761 C 155.339 238.805, 157.175 237.706, 158 237.319 C 158.825 236.932, 162.824 234.002, 166.886 230.808 C 170.948 227.614, 174.651 225, 175.115 225 C 175.580 225, 176.886 223.184, 178.018 220.965 C 179.150 218.746, 180.690 217.058, 181.441 217.215 C 182.191 217.372, 184.789 215.475, 187.213 213 C 189.638 210.525, 193.310 207.150, 195.373 205.500 C 200.189 201.650, 201.740 200.222, 202.161 199.255 C 202.688 198.043, 212.430 191.316, 214.704 190.594 C 215.822 190.239, 217.540 189.060, 218.523 187.974 C 219.506 186.889, 220.860 186, 221.533 186 C 222.205 186, 223.274 185.375, 223.908 184.611 C 224.542 183.847, 226.060 182.992, 227.281 182.711 C 228.501 182.430, 231.975 181.224, 235 180.032 C 238.025 178.840, 242.525 177.245, 245 176.487 C 250.834 174.703, 270.351 172.167, 275.500 172.525 C 277.700 172.678, 284.129 172.917, 289.787 173.057 C 295.445 173.197, 300.332 173.728, 300.646 174.237 C 300.961 174.746, 302.347 174.879, 303.727 174.532 C 305.368 174.121, 306.855 174.463, 308.027 175.524 C 309.695 177.034, 309.869 176.989, 310.540 174.875 L 311.261 172.604 313.075 174.845 C 314.679 176.825, 315.158 176.935, 317.195 175.793 C 318.463 175.082, 319.775 174.124, 320.111 173.665 C 320.447 173.206, 320.991 173.856, 321.318 175.109 C 321.891 177.300, 321.989 177.320, 323.861 175.626 C 325.482 174.159, 326.142 174.072, 327.800 175.107 C 329.452 176.139, 330.078 176.065, 331.468 174.675 C 332.511 173.632, 333.996 173.212, 335.397 173.563 C 336.799 173.915, 338.142 173.534, 338.956 172.553 C 340.141 171.126, 340.382 171.139, 341.523 172.701 C 342.577 174.142, 343.041 174.210, 344.358 173.118 C 345.224 172.399, 346.510 172.020, 347.216 172.275 C 347.922 172.530, 349.287 172.053, 350.250 171.215 C 351.822 169.845, 352 169.852, 352 171.286 C 352 173.799, 353.721 174.229, 356.497 172.410 C 358.898 170.837, 359.170 170.844, 361.026 172.523 C 362.924 174.241, 363.083 174.236, 365.146 172.405 C 366.679 171.044, 367.416 170.855, 367.727 171.742 C 368.055 172.681, 368.665 172.715, 370.227 171.878 C 371.888 170.990, 372.477 171.101, 373.230 172.447 C 374.105 174.010, 374.336 174.010, 376.709 172.455 C 378.734 171.128, 379.414 171.052, 380.050 172.080 C 380.695 173.125, 381.166 173.107, 382.521 171.983 C 383.965 170.784, 384.324 170.828, 385.150 172.304 C 385.923 173.685, 386.505 173.800, 388.181 172.903 C 389.719 172.080, 390.440 172.093, 390.972 172.955 C 391.419 173.678, 392.731 173.855, 394.452 173.423 C 396.298 172.959, 397.486 173.168, 398.031 174.050 C 398.704 175.139, 399.125 175.142, 400.424 174.063 C 401.555 173.125, 402.363 173.056, 403.284 173.820 C 404.097 174.496, 405.104 174.546, 406.034 173.958 C 408.170 172.607, 409 172.790, 409 174.613 C 409 175.864, 409.729 176.120, 412.238 175.752 C 414.020 175.490, 416.832 175.705, 418.488 176.230 C 423.437 177.796, 445.881 181.974, 455 183.026 C 469.104 184.652, 479.902 189.005, 490.036 197.149 C 498.299 203.790, 506.771 219.076, 516.277 244.500 C 517.369 247.420, 519.241 249.504, 523.210 252.218 C 526.840 254.701, 529.536 257.569, 531.320 260.847 C 534.292 266.308, 541.982 287.681, 542.032 290.619 C 542.049 291.653, 542.724 293.374, 543.532 294.441 C 544.339 295.509, 545 297.160, 545 298.110 C 545 299.060, 545.633 301.112, 546.407 302.669 C 549.733 309.358, 552.209 318.830, 552.397 325.587 C 552.499 329.247, 555.053 332.281, 556.670 330.664 C 557.775 329.559, 557.905 305.275, 556.911 285.500 C 556.441 276.150, 555.809 261.525, 555.506 253 C 555.203 244.475, 554.657 231.200, 554.293 223.500 C 553.404 204.699, 553.814 193.566, 555.628 187.263 C 557.192 181.825, 556.894 180, 554.441 180 C 552.597 180, 552.595 177.554, 554.436 174.715 C 556.310 171.824, 556.164 156.277, 554.256 155.545 C 553.491 155.251, 552.982 153.337, 552.989 150.777 C 553.016 141.171, 552.281 133.881, 551.174 132.774 C 550.528 132.128, 550 129.080, 550 126 C 550 122.920, 549.594 119.973, 549.097 119.450 C 548.600 118.928, 548.015 117.600, 547.797 116.500 C 547.455 114.782, 547.156 114.958, 545.674 117.750 C 544.725 119.537, 543.245 121, 542.385 121 C 541.524 121, 540 122.013, 538.996 123.250 C 537.993 124.487, 536.848 125.177, 536.452 124.783 C 536.056 124.389, 535.359 119.889, 534.903 114.783 C 533.581 99.986, 533.357 99.209, 530.572 99.741 C 529.221 100, 527.918 101.134, 527.575 102.349 C 527.077 104.115, 526.815 104.232, 526.112 103 C 525.642 102.175, 524.935 99.716, 524.542 97.535 C 523.713 92.927, 521.367 88, 520.003 88 C 519.483 88, 518.643 89.462, 518.136 91.250 L 517.214 94.500 514.909 89.250 C 512.357 83.439, 511.339 82.800, 510.427 86.433 C 509.639 89.576, 507.764 88.833, 505.398 84.441 C 504.379 82.549, 503.295 81, 502.988 81 C 502.682 81, 501.629 79.642, 500.649 77.982 C 499.668 76.323, 498.418 75.242, 497.870 75.580 C 497.322 75.919, 496.051 75.451, 495.046 74.541 C 494.040 73.631, 491.995 72.756, 490.501 72.597 C 489.008 72.438, 486.070 70.776, 483.973 68.904 C 477.419 63.052, 477.206 62.918, 476.636 64.279 C 476.274 65.145, 475.712 64.991, 474.703 63.750 C 473.042 61.708, 466.307 57, 465.046 57 C 464.014 57, 467.545 64.601, 468.993 65.495 C 469.547 65.838, 470 66.596, 470 67.180 C 470 67.765, 467.518 66.122, 464.484 63.531 C 461.451 60.939, 458.317 58.723, 457.521 58.606 C 456.725 58.489, 454.144 56.843, 451.787 54.949 C 449.429 53.054, 447.315 51.656, 447.090 51.842 C 446.864 52.027, 446.274 51.454, 445.778 50.569 C 445.283 49.683, 444.452 49.221, 443.931 49.542 C 443.411 49.864, 442.706 49.397, 442.364 48.506 C 442.022 47.614, 441.107 47.129, 440.331 47.427 C 439.554 47.725, 433.875 45.553, 427.710 42.601 C 421.544 39.648, 415.150 36.948, 413.500 36.600 C 411.850 36.251, 409.600 35.792, 408.500 35.578 C 407.400 35.364, 403.125 34.054, 399 32.667 C 390.721 29.881, 379.777 26.616, 373.292 24.997 C 368.588 23.822, 366.538 22.013, 370.780 22.781 C 372.276 23.052, 373.275 23.028, 373 22.729 C 372.725 22.430, 370.025 21.693, 367 21.091 C 363.975 20.490, 359.398 19.569, 356.829 19.044 C 351.796 18.016, 331.359 16.692, 332.109 17.443 C 332.359 17.693, 336.825 18.429, 342.032 19.079 C 347.239 19.728, 352.222 20.887, 353.105 21.654 C 354.035 22.461, 355.472 22.756, 356.519 22.354 C 357.765 21.876, 358.103 22.025, 357.605 22.830 C 357.165 23.541, 357.524 24, 358.520 24 C 361.574 24, 373.484 29.260, 376.380 31.887 C 377.964 33.324, 382.099 37.415, 385.569 40.978 C 392.247 47.835, 393.566 50.863, 387.232 44.795 C 383.252 40.983, 379.271 38.706, 374.640 37.594 C 373.066 37.216, 369.916 36.046, 367.640 34.994 C 357.964 30.525, 344.287 28.854, 314.763 28.533 C 299.507 28.367, 287.234 28.570, 287.489 28.983 C 288.081 29.940, 280.434 31, 272.932 31 C 268.977 31, 266.640 31.503, 265.555 32.588 C 264.682 33.461, 262.181 34.381, 259.997 34.632 C 257.813 34.882, 254.033 35.688, 251.596 36.421 C 249.159 37.154, 246.001 37.532, 244.577 37.260 C 243.153 36.987, 241.349 37.295, 240.568 37.943 C 239.787 38.591, 238.552 39.003, 237.824 38.858 C 237.096 38.713, 234.282 39.596, 231.570 40.820 C 228.859 42.045, 226.159 42.864, 225.570 42.640 C 224.982 42.416, 225.400 41.923, 226.500 41.544 C 227.600 41.166, 229.175 40.443, 230 39.938 C 236.375 36.039, 238.936 35.206, 244.509 35.215 C 248.022 35.220, 251.948 34.540, 254 33.571 L 257.500 31.918 252.500 32.641 C 249.750 33.039, 245.250 33.420, 242.500 33.487 C 239.750 33.555, 235.842 33.967, 233.815 34.404 C 227.168 35.837, 227.761 33.902, 235.038 30.414 C 239.348 28.349, 243.688 27, 246.022 27 C 251.181 27, 251.974 25.340, 247.200 24.534 C 244.843 24.136, 241.699 24.453, 238.946 25.367 C 236.501 26.178, 230.225 27.597, 225 28.519 C 208.528 31.425, 195.297 35.125, 178.500 41.522 C 176.727 42.197, 176.671 42.116, 178 40.805 C 180.328 38.511, 199.601 31.391, 208.500 29.538 C 212.900 28.622, 219.310 27.043, 222.745 26.028 C 226.179 25.014, 229.895 24.421, 231.002 24.711 C 233.139 25.270, 238.504 23.503, 241 21.418 C 241.825 20.729, 247 19.406, 252.500 18.479 C 262.769 16.747, 267.815 15.089, 262.993 15.030 C 261.615 15.014, 258.933 15.446, 257.034 15.990 C 254.754 16.644, 253.244 16.644, 252.590 15.990 C 251.937 15.337, 252.667 15, 254.741 15 C 256.469 15, 258.160 14.550, 258.500 14 C 259.132 12.978, 258.043 12.889, 254.500 13.676 M 269 18.133 C 263.225 19.192, 255.652 20.456, 252.170 20.942 C 248.689 21.428, 245.577 22.090, 245.254 22.413 C 244.102 23.565, 254.594 22.951, 259.815 21.561 C 262.738 20.783, 269.263 19.621, 274.315 18.978 C 279.367 18.335, 285.750 17.456, 288.500 17.023 C 293.492 16.239, 293.489 16.238, 286.500 16.223 C 282.650 16.215, 274.775 17.074, 269 18.133 M 221.629 39.606 C 219.358 41.150, 216.246 42.271, 214 42.356 C 211.913 42.435, 210.458 42.914, 210.767 43.420 C 211.081 43.935, 210.544 44.039, 209.547 43.656 C 208.399 43.216, 206.023 44.045, 202.868 45.986 C 200.174 47.644, 197.489 49, 196.901 49 C 194.522 49, 174.455 60.789, 175.336 61.669 C 175.507 61.841, 180.528 59.312, 186.492 56.050 C 192.457 52.788, 199.174 49.813, 201.419 49.440 C 203.663 49.066, 207.170 47.914, 209.210 46.880 C 211.251 45.846, 214.273 45, 215.926 45 C 217.837 45, 219.984 43.999, 221.823 42.250 C 223.413 40.737, 225.566 38.964, 226.607 38.309 C 228.063 37.393, 228.149 37.104, 226.982 37.059 C 226.147 37.026, 223.738 38.173, 221.629 39.606 M 164.750 44.062 C 157.261 47.891, 154.565 49.876, 159.298 48.077 C 164.591 46.065, 175 41.083, 175 40.563 C 175 39.311, 172.120 40.294, 164.750 44.062 M 209.500 50.068 C 207.850 51.125, 207.175 51.982, 208 51.972 C 208.825 51.963, 210.625 51.076, 212 50 C 215.197 47.499, 213.436 47.547, 209.500 50.068 M 152.029 49.961 C 151.220 50.473, 150.853 51.187, 151.214 51.548 C 151.575 51.909, 152.900 51.483, 154.158 50.602 C 156.623 48.875, 154.674 48.288, 152.029 49.961 M 198.815 53.035 C 196.788 54.105, 194.828 55.469, 194.460 56.064 C 194.092 56.660, 195.607 56.221, 197.828 55.088 C 200.048 53.955, 202.146 52.572, 202.491 52.014 C 203.305 50.697, 203.168 50.735, 198.815 53.035 M 138.065 56.421 C 137.097 57.588, 137.255 57.746, 138.943 57.305 C 140.074 57.009, 141 56.369, 141 55.883 C 141 54.535, 139.386 54.830, 138.065 56.421 M 189.429 60.429 C 188.370 61.203, 187.728 62.061, 188.003 62.336 C 188.278 62.611, 189.370 62.203, 190.429 61.429 C 191.488 60.654, 192.129 59.796, 191.854 59.521 C 191.579 59.246, 190.488 59.654, 189.429 60.429 M 90 65 C 88.625 66.076, 88.013 66.966, 88.639 66.978 C 89.266 66.990, 90.841 66.115, 92.139 65.033 C 95.211 62.474, 93.268 62.444, 90 65 M 82.195 91.186 C 79.313 93.993, 77.207 96.540, 77.513 96.847 C 77.820 97.153, 79.158 96.300, 80.488 94.952 C 83.476 91.922, 85.037 90.638, 87.217 89.418 C 88.189 88.874, 88.595 87.963, 88.171 87.277 C 87.673 86.470, 85.734 87.738, 82.195 91.186 M 97.616 98.003 C 94.367 101.600, 93.434 103, 94.288 103 C 94.447 103, 96.269 100.975, 98.338 98.500 C 103.001 92.922, 102.511 92.585, 97.616 98.003 M 71.039 100.189 C 69.248 102.111, 68.392 104, 69.312 104 C 69.484 104, 70.622 102.650, 71.842 101 C 74.432 97.497, 73.976 97.036, 71.039 100.189 M 63.783 103.752 C 62.417 105.816, 61.073 109.049, 60.796 110.938 L 60.292 114.372 62.641 111.436 C 63.933 109.821, 65.007 107.825, 65.027 107 C 65.047 106.175, 65.724 104.626, 66.532 103.559 C 68.187 101.370, 68.419 100, 67.133 100 C 66.656 100, 65.148 101.688, 63.783 103.752 M 166.158 285.065 C 164.869 285.582, 163.424 285.762, 162.945 285.466 C 161.313 284.457, 148.512 287.254, 143.705 289.669 C 140.952 291.053, 134.992 296.057, 129.705 301.423 C 117.749 313.559, 107.161 328.027, 111.435 326.387 C 112.465 325.991, 112.655 326.882, 112.269 330.307 L 111.769 334.738 116.284 335.415 C 119.861 335.952, 121.481 335.678, 124.079 334.098 C 125.883 333.001, 127.679 332.302, 128.071 332.544 C 128.780 332.982, 139.120 328.533, 150.410 322.932 C 153.660 321.319, 156.853 320, 157.506 320 C 158.159 320, 160.101 319.297, 161.823 318.438 C 165.818 316.446, 180.613 315.579, 187.352 316.942 C 190.183 317.515, 194.300 318.258, 196.500 318.592 C 198.700 318.927, 201.258 319.605, 202.184 320.100 C 203.111 320.595, 204.789 321, 205.914 321 C 207.040 321, 214.157 324.117, 221.730 327.927 C 236.442 335.328, 244.085 338.401, 250.500 339.496 C 252.700 339.872, 254.976 340.572, 255.557 341.052 C 256.138 341.532, 258.691 342.119, 261.230 342.356 C 263.769 342.593, 266.280 343.055, 266.810 343.383 C 268.157 344.215, 269.582 342.233, 271.407 336.992 C 273.149 331.988, 273.557 321, 272 321 C 271.450 321, 270.993 322.913, 270.985 325.250 C 270.976 327.587, 270.572 330.128, 270.086 330.895 C 269.521 331.787, 269.006 328.902, 268.658 322.895 C 267.994 311.460, 267.117 306.190, 265.736 305.337 C 265.028 304.899, 264.887 306.915, 265.298 311.596 C 265.876 318.197, 265.843 318.346, 264.528 315 C 263.771 313.075, 263.118 310.751, 263.076 309.835 C 263.001 308.202, 251.986 296.681, 251.226 297.441 C 251.012 297.654, 251.340 298.767, 251.954 299.914 C 253.333 302.490, 251.659 302.738, 249.807 300.233 C 247.563 297.198, 243.066 294.899, 238.698 294.554 C 236.389 294.372, 231.575 293.526, 228 292.675 C 208.177 287.954, 193.795 286.142, 174.234 285.900 C 172.438 285.878, 171.227 285.442, 171.543 284.930 C 172.269 283.756, 169.235 283.832, 166.158 285.065 M 403 302.104 C 399.425 302.571, 395.714 302.710, 394.754 302.411 C 393.075 301.889, 387.387 303.292, 383.764 305.123 C 382.809 305.605, 381.209 306, 380.210 306 C 379.210 306, 376.887 307.553, 375.048 309.451 C 373.208 311.348, 371.272 312.811, 370.745 312.701 C 370.218 312.590, 368.839 314.286, 367.681 316.470 C 365.641 320.317, 365.556 320.363, 364.921 317.970 C 364.280 315.550, 364.236 315.572, 362.756 319 C 361.926 320.925, 360.938 324.637, 360.562 327.250 C 360.185 329.863, 359.455 332, 358.939 332 C 357.435 332, 357.857 340.351, 359.478 342.666 C 362.460 346.922, 373.982 345.708, 392 339.239 C 396.675 337.561, 403.650 335.057, 407.500 333.675 C 421.330 328.711, 443.183 327.096, 459 329.870 C 467.173 331.302, 471.945 332.811, 468.691 332.932 C 466.056 333.031, 467.696 335, 470.413 335 C 472.535 335, 478 339.025, 478 340.588 C 478 340.963, 479.012 342.246, 480.250 343.437 C 482.393 345.501, 484.072 347.529, 490.976 356.393 C 495.282 361.920, 499 364.527, 499 362.018 C 499 361.477, 497.205 358.102, 495.011 354.518 C 490.741 347.542, 490.607 346.393, 494.558 350.657 C 495.912 352.118, 497.277 353.056, 497.591 352.742 C 498.349 351.984, 496.408 348.390, 492.661 343.611 C 490.149 340.407, 489.986 339.922, 491.740 340.861 C 492.911 341.487, 494.119 342, 494.426 342 C 495.544 342, 494.300 336.106, 492.650 333.588 C 491.717 332.165, 491.189 331, 491.477 331 C 492.179 331, 488.207 326.988, 485.044 324.500 C 483.645 323.400, 482.500 321.938, 482.500 321.250 C 482.500 320.563, 482.128 320.030, 481.673 320.066 C 481.218 320.102, 479.854 318.977, 478.641 317.566 C 477.429 316.155, 475.958 315, 475.373 315 C 474.788 315, 473.495 314.100, 472.500 313 C 471.505 311.900, 470.191 311, 469.580 311 C 468.970 311, 466.745 310.075, 464.637 308.945 C 462.194 307.636, 459.480 307.015, 457.152 307.233 L 453.500 307.574 456.500 308.439 C 458.150 308.915, 460.850 310.427, 462.500 311.798 C 465.374 314.188, 465.395 314.261, 463 313.544 C 461.625 313.133, 459.150 312.131, 457.500 311.319 C 455.850 310.506, 452.025 308.938, 449 307.833 C 445.975 306.728, 442.122 305.208, 440.437 304.454 C 437.905 303.321, 414.363 300.695, 410.605 301.127 C 409.997 301.197, 406.575 301.636, 403 302.104 M 152 350.590 C 124.285 352.969, 117.951 354.319, 113.820 358.726 C 106.021 367.047, 103.586 380.008, 104.280 409.500 C 104.993 439.841, 107.022 447.339, 116.926 456.244 C 128.459 466.612, 151.702 471.264, 199 472.668 C 233.140 473.682, 243.914 471.163, 252.573 460.142 C 258.295 452.861, 262.980 443.757, 266.798 432.500 C 272.375 416.060, 273.344 411.153, 273.424 398.932 C 273.496 387.958, 273.360 387.152, 270.783 383.252 C 266.576 376.888, 263.336 374.365, 252 368.625 C 236.430 360.742, 219.905 355.331, 202.530 352.429 C 193.839 350.977, 161.292 349.793, 152 350.590 M 167.500 365.996 C 154.626 368.166, 151.047 369.769, 144.741 376.191 C 143.224 377.736, 141.609 379, 141.152 379 C 140.695 379, 139.803 380.138, 139.169 381.528 C 138.536 382.919, 137.338 384.317, 136.509 384.635 C 135.679 384.953, 135 385.635, 135 386.151 C 135 386.666, 133.875 388.301, 132.500 389.783 C 131.125 391.266, 130 393.029, 130 393.701 C 130 395.610, 136.363 396.748, 150.687 397.401 C 157.940 397.731, 165.007 398.432, 166.392 398.959 C 169.714 400.222, 187.317 402, 196.497 402 L 203.783 402 205.313 398.175 C 209.045 388.847, 208.580 385.541, 202.630 379.125 C 200.520 376.850, 200.152 376.087, 201.500 376.785 C 205.637 378.928, 217.643 387.009, 221.327 390.129 C 224.820 393.088, 225.095 393.680, 224.485 396.933 C 224.117 398.892, 223.350 400.784, 222.780 401.136 C 221.190 402.119, 222.850 404, 225.309 404 C 226.514 404, 230.988 405.076, 235.250 406.392 C 241.610 408.354, 243 408.521, 243 407.326 C 243 404.826, 236.552 391.774, 231.615 384.279 C 227.737 378.393, 225.786 376.494, 220.697 373.649 C 209.248 367.251, 203.177 365.773, 187 365.446 C 179.025 365.285, 170.250 365.533, 167.500 365.996 M 411.338 369.031 C 391.685 371.496, 367.896 378.154, 360.476 383.268 C 357.441 385.360, 354.583 388.542, 352.609 392.027 C 349.738 397.097, 349.483 398.339, 349.142 408.902 C 348.616 425.226, 351.477 441.283, 357.709 456.978 C 364.724 474.648, 371.569 478.422, 404.790 482.939 C 426.072 485.832, 441.462 486.983, 458.500 486.955 C 495.775 486.894, 507.746 479.314, 515.369 450.947 C 518.702 438.542, 520.964 423.332, 521.687 408.464 C 522.346 394.919, 521.638 392.397, 515.793 387.480 C 509.891 382.513, 500.056 379.288, 476.500 374.592 C 450.129 369.335, 425.601 367.242, 411.338 369.031 M 239.539 372.726 C 232.091 374.297, 229.540 376.272, 231.126 379.236 C 231.645 380.206, 232.697 381, 233.462 381 C 234.228 381, 236.171 382.597, 237.780 384.549 C 239.949 387.181, 242.616 388.775, 248.103 390.719 C 255.707 393.415, 265.142 394.258, 266.991 392.409 C 268.670 390.730, 265.266 382.422, 261.825 379.802 C 260.162 378.536, 258.059 376.774, 257.151 375.886 C 252.869 371.699, 248.298 370.879, 239.539 372.726 M 402.500 376.466 C 401.950 376.636, 398.884 377.354, 395.687 378.062 C 391.920 378.896, 389.103 380.212, 387.687 381.797 C 386.484 383.143, 384.488 385.254, 383.250 386.487 C 382.012 387.720, 381 389.024, 381 389.384 C 381 389.743, 378.637 394.867, 375.750 400.769 C 372.863 406.671, 370.350 411.837, 370.167 412.250 C 369.760 413.166, 373.630 413.224, 377.915 412.367 C 380.001 411.950, 381.031 411.183, 380.935 410.117 C 380.727 407.807, 382.077 404, 383.103 404 C 383.582 404, 384.631 402.425, 385.436 400.500 C 386.240 398.575, 387.426 397, 388.071 397 C 388.968 397, 388.969 397.333, 388.074 398.411 C 387.351 399.282, 387.272 400.050, 387.868 400.418 C 388.399 400.747, 388.833 403.037, 388.833 405.508 C 388.833 409.692, 388.650 410.004, 386.167 410.063 L 383.500 410.127 386 411.170 C 388.542 412.231, 425.448 411.638, 429.508 410.471 C 431.095 410.014, 431.933 408.074, 433.508 401.210 C 435.802 391.210, 436.844 390.455, 443.397 394.044 C 451.396 398.424, 456.209 405.017, 454.125 408.740 C 453.307 410.202, 454.561 410.685, 464.347 412.680 C 470.481 413.930, 476.121 414.964, 476.881 414.977 C 480.395 415.036, 474.374 399.868, 468.497 393.858 C 459.718 384.880, 443.525 378.437, 426.117 376.994 C 414.872 376.063, 404.557 375.832, 402.500 376.466 M 161.752 384.847 C 160.240 385.756, 159.003 387.063, 159.002 387.750 C 159.001 388.438, 158.550 389, 158 389 C 156.598 389, 156.753 392.280, 158.253 394.332 C 158.943 395.274, 161.202 396.321, 163.275 396.657 L 167.043 397.269 166.725 390.452 C 166.550 386.703, 165.978 383.536, 165.454 383.415 C 164.929 383.293, 163.263 383.938, 161.752 384.847 M 188 390 C 188 390.550, 189.152 391, 190.559 391 C 192.010 391, 192.851 390.567, 192.500 390 C 192.160 389.450, 191.009 389, 189.941 389 C 188.873 389, 188 389.450, 188 390 M 422 391.987 C 421.175 392.465, 419.712 393.099, 418.750 393.396 C 415.863 394.288, 416.624 397.005, 419.750 396.967 C 422.612 396.932, 427 393.981, 427 392.090 C 427 390.807, 424.139 390.748, 422 391.987 M 561.973 427.670 C 556.497 431.370, 547.084 440.193, 545.192 443.399 L 543.181 446.807 547.688 444.814 C 550.762 443.454, 553.585 442.959, 556.567 443.257 C 562.747 443.874, 564.849 441.426, 565.667 432.662 C 566.332 425.540, 565.930 424.997, 561.973 427.670 M 537.750 467.577 C 537.337 467.993, 537.014 469.496, 537.030 470.917 C 537.057 473.183, 537.188 473.281, 538.098 471.719 C 539.236 469.762, 538.951 466.365, 537.750 467.577 M 373 488.932 C 373 492.479, 391.326 498.721, 404.500 499.662 L 412.500 500.234 409.417 497.326 C 404.245 492.447, 373 485.246, 373 488.932 M 230.031 504.750 C 225.704 520.019, 229.057 531.244, 239.246 535.597 C 242.726 537.084, 245.829 537.377, 256.302 537.207 C 268.639 537.006, 269.492 537.130, 279.802 540.616 C 295.050 545.772, 301.206 546.048, 313.304 542.115 C 322.614 539.088, 323.538 538.982, 341.161 538.923 C 351.869 538.888, 360.236 538.427, 361.444 537.806 C 364.206 536.387, 367.958 532.919, 369.176 530.659 C 369.995 529.138, 369.379 529.280, 365.644 531.468 L 361.120 534.120 359.060 532.060 C 357.927 530.927, 356.999 529.438, 356.998 528.750 C 356.997 528.063, 355.038 526.263, 352.643 524.750 C 345.264 520.088, 333.724 521.184, 324.262 527.446 C 320.490 529.942, 320 530.012, 312.369 529.158 C 306.178 528.466, 302.897 527.451, 297.595 524.588 C 286.135 518.400, 281.403 516.992, 269.871 516.337 C 260.971 515.831, 258.693 516.013, 255.871 517.453 C 250.672 520.106, 242.071 520.605, 237.985 518.492 C 232.128 515.463, 231.475 514.290, 231.774 507.323 C 231.923 503.845, 231.831 501, 231.569 501 C 231.308 501, 230.616 502.688, 230.031 504.750 M 427.480 564.008 C 427.902 565.379, 429.092 567.305, 430.124 568.289 C 431.156 569.273, 432 570.585, 432 571.206 C 432 571.826, 432.284 572.049, 432.631 571.702 C 433.474 570.859, 430.463 564.629, 428.374 562.896 C 426.879 561.654, 426.789 561.766, 427.480 564.008 M 175.750 583.721 C 173.337 584.082, 173 584.573, 173 587.722 C 173 590.004, 173.905 592.498, 175.486 594.570 C 178.867 599.004, 192.518 609.154, 199.613 612.510 C 209.644 617.256, 230.560 622.945, 242 624.039 C 247.775 624.592, 257.225 625.485, 263 626.024 C 268.775 626.562, 276.923 627.395, 281.107 627.875 C 285.487 628.377, 296.518 628.364, 307.107 627.845 C 317.223 627.349, 329.550 626.974, 334.500 627.011 C 350.410 627.132, 361.695 625.411, 374.627 620.890 C 390.928 615.191, 398.142 611.334, 409.411 602.292 C 412.549 599.774, 412.580 596.360, 409.462 596.738 C 396.015 598.366, 389.040 598.114, 377 595.567 C 345.657 588.936, 344.945 588.851, 317.500 588.519 C 300.885 588.319, 287.349 587.630, 280 586.611 C 265.435 584.591, 250.823 584.582, 228.300 586.577 C 207.690 588.402, 194.940 587.638, 179.878 583.673 C 179.120 583.473, 177.262 583.495, 175.750 583.721 M 265.728 596.657 C 264.204 596.921, 262.252 598.211, 261.392 599.524 L 259.828 601.912 257.660 599.391 L 255.493 596.871 246.857 598.120 L 238.221 599.369 237.611 603.824 C 237.275 606.274, 237 610.226, 237 612.604 C 237 618.291, 238.605 619.089, 250.847 619.490 C 257.733 619.716, 262.029 620.413, 265.834 621.922 C 268.768 623.085, 274.492 624.531, 278.553 625.136 C 285.325 626.143, 286.226 626.064, 289.398 624.193 C 292.850 622.156, 292.860 622.156, 294.181 624.146 C 295.336 625.886, 296.994 626.213, 307.166 626.714 L 318.828 627.289 321.393 624.521 L 323.959 621.753 327.651 623.505 C 332.008 625.572, 343.224 625.013, 345.895 622.595 C 347.081 621.521, 347.984 621.411, 349.346 622.174 C 351.431 623.341, 359.539 621.523, 360.768 619.613 C 362.917 616.274, 363.781 611.670, 362.792 608.834 C 361.547 605.262, 358.640 604, 351.657 604 C 347.763 604, 346.031 603.517, 344.808 602.089 C 342.771 599.709, 333.176 597.626, 328.160 598.473 C 326.098 598.821, 323.133 598.621, 321.573 598.028 C 318.328 596.794, 302.589 596.344, 299.320 597.392 C 298.120 597.776, 296.290 599.432, 295.252 601.071 L 293.365 604.051 292.122 601.728 C 290.006 597.775, 287.076 596.713, 277.521 596.437 C 272.560 596.294, 267.253 596.393, 265.728 596.657 M 231 602.934 C 231 603.447, 229.762 604.010, 228.250 604.184 C 226.068 604.435, 225.018 605.510, 223.166 609.389 C 220.412 615.157, 221.016 615.961, 228.122 615.985 C 232.725 616, 232.747 615.983, 233.368 612.102 C 234.064 607.745, 233.216 602, 231.875 602 C 231.394 602, 231 602.420, 231 602.934 M 213.396 606.275 C 213.978 608.741, 217.199 613, 218.483 613 C 219.110 613, 215.126 605.804, 213.777 604.500 C 213.067 603.815, 212.948 604.373, 213.396 606.275 M 369.055 609.882 C 366.298 610.651, 364.094 616.494, 365.885 618.285 C 368.078 620.478, 374.830 613.605, 373.608 610.422 C 373.019 608.885, 372.743 608.853, 369.055 609.882 M 251.783 655.551 C 251.411 655.922, 252.096 657.565, 253.304 659.202 C 256.258 663.205, 262.993 666.099, 274 668.094 C 280.894 669.344, 303.156 669.244, 304.442 667.958 C 304.969 667.431, 306.155 667, 307.078 667 C 308 667, 309.284 666.363, 309.929 665.585 C 310.916 664.397, 310.015 664.072, 304.302 663.556 C 292.435 662.484, 276.738 659.997, 269.500 658.041 C 261.195 655.797, 252.727 654.606, 251.783 655.551 M 414.500 741.536 C 407.902 746.794, 402 754.302, 402 757.438 C 402 758.232, 401.547 759.162, 400.993 759.505 C 400.439 759.847, 399.141 761.786, 398.109 763.814 C 393.322 773.219, 388.799 781, 388.118 781 C 386.844 781, 384.016 787.879, 384.632 789.482 C 385.109 790.725, 387.438 791, 397.504 791 L 409.793 791 410.999 782.250 C 412.851 768.803, 414.875 758.725, 415.936 757.664 C 417.431 756.169, 433.841 770.708, 440.491 779.420 C 444.716 784.955, 446.485 788.176, 446.166 789.750 C 445.969 790.723, 451.352 791, 470.456 791 C 484.988 791, 495 790.619, 495 790.066 C 495 788.930, 464.421 766.648, 452.269 758.931 C 447.446 755.867, 439.547 751.161, 434.715 748.473 C 424.246 742.647, 421.654 740.432, 422.321 737.881 C 422.591 736.847, 422.505 736, 422.130 736 C 421.754 736, 418.321 738.491, 414.500 741.536" stroke="none" fill="#ccaa90" fill-rule="evenodd"/></svg>